<?xml version="1.0" encoding="UTF-8" standalone="no"?>
<svg width="40px" height="40px" viewBox="0 0 40 40" version="1.1" xmlns="http://www.w3.org/2000/svg" xmlns:xlink="http://www.w3.org/1999/xlink" xmlns:sketch="http://www.bohemiancoding.com/sketch/ns">
    <!-- Generator: Sketch 3.3.3 (12081) - http://www.bohemiancoding.com/sketch -->
    <title>brazil -flag</title>
    <desc>Created with Sketch.</desc>
    <defs>
        <path id="path-1" d="M0,21.5423613 C0.797471037,31.8691678 9.43339924,40 19.9699549,40 C31.0325488,40 40,31.037037 40,19.97998 C40,9.35173039 31.7146014,0.658300861 21.2471674,1.42250798e-14 L18.6927424,0 C8.74312794,0.625735001 0.765000011,8.51127386 1.94580901e-16,18.4175986 L2.236221e-13,21.5423613"></path>
    </defs>
    <g id="Page-1" stroke="none" stroke-width="1" fill="none" fill-rule="evenodd" sketch:type="MSPage">
        <g id="Mobile--rates-explained-Copy" sketch:type="MSArtboardGroup" transform="translate(-23.000000, -1172.000000)">
            <g id="brazil--flag" sketch:type="MSLayerGroup" transform="translate(23.000000, 1172.000000)">
                <g id="Brazil-pic">
                    <mask id="mask-2" sketch:name="Clip 2" fill="white">
                        <use xlink:href="#path-1"></use>
                    </mask>
                    <g id="Clip-2"></g>
                    <path d="M-8,-8.99899884 L49,-9 L49,49 L-8,49 L-8,-8.99899884" id="Fill-1" fill="#249D50" sketch:type="MSShapeGroup" mask="url(#mask-2)"></path>
                    <path d="M20.1113689,35 L44,19.5218408 L19.9671859,4 L-4,19.5575802 L20.1113689,35" id="Fill-3" fill="#F0E33D" sketch:type="MSShapeGroup" mask="url(#mask-2)"></path>
                    <path d="M30,18.9906373 C30,13.4734344 25.5231987,9 20.0004985,9 C14.4768144,9 10.0000131,13.4734344 10.0000131,18.9906373 C9.99115792,24.5107943 14.4610718,28.9901369 19.9827881,28.9999838 C25.5064722,29.0098306 29.9901609,24.543289 30,19.0260861 L30,18.9906373 L20.0004985,18.9906373 L30,18.9906373" id="Fill-4" fill="#284D8F" sketch:type="MSShapeGroup" mask="url(#mask-2)"></path>
                    <path d="M16.7905405,26 L16.4874517,25.8206897 L16.1727799,25.9802956 L16.242278,25.6246305 L16,25.3615764 L16.3474903,25.320197 L16.511583,25 L16.6563707,25.3310345 L17,25.3950739 L16.742278,25.6394089 L16.7905405,26" id="Fill-5" fill="#FFFCE9" sketch:type="MSShapeGroup" mask="url(#mask-2)"></path>
                    <path d="M23.7915058,27 L23.4864865,26.8206897 L23.1727799,26.9812808 L23.242278,26.6246305 L23,26.3615764 L23.3474903,26.320197 L23.511583,26 L23.6563707,26.3310345 L24,26.3950739 L23.742278,26.6394089 L23.7915058,27" id="Fill-6" fill="#FFFCE9" sketch:type="MSShapeGroup" mask="url(#mask-2)"></path>
                    <path d="M20.707,24.877 L20.435,24.72 L20.154,24.86 L20.216,24.547 L20,24.317 L20.309,24.282 L20.457,24 L20.586,24.29 L20.894,24.346 L20.663,24.561 L20.707,24.877" id="Fill-7" fill="#FFFCE9" sketch:type="MSShapeGroup" mask="url(#mask-2)"></path>
                    <path d="M27.694,23.859 L27.427,23.706 L27.151,23.842 L27.213,23.535 L27,23.311 L27.305,23.274 L27.449,23 L27.576,23.284 L27.879,23.339 L27.653,23.549 L27.694,23.859" id="Fill-8" fill="#FFFCE9" sketch:type="MSShapeGroup" mask="url(#mask-2)"></path>
                    <path d="M20.7915058,21 L20.4874517,20.8216749 L20.1727799,20.9812808 L20.242278,20.6246305 L20,20.3625616 L20.3474903,20.3221675 L20.511583,20 L20.6563707,20.3320197 L21,20.3950739 L20.742278,20.6413793 L20.7915058,21" id="Fill-9" fill="#FFFCE9" sketch:type="MSShapeGroup" mask="url(#mask-2)"></path>
                    <path d="M12.7905405,18 L12.4874517,17.8208661 L12.1727799,17.9793307 L12.242278,17.6230315 L12,17.3622047 L12.3474903,17.3208661 L12.511583,17 L12.6563707,17.3297244 L13,17.394685 L12.742278,17.6387795 L12.7905405,18" id="Fill-10" fill="#FFFCE9" sketch:type="MSShapeGroup" mask="url(#mask-2)"></path>
                    <path d="M13.7913043,22 L13.4869565,21.8208661 L13.1719807,21.9793307 L13.2425121,21.6230315 L13,21.3622047 L13.3468599,21.3198819 L13.5120773,21 L13.6560386,21.3297244 L14,21.3937008 L13.7429952,21.6397638 L13.7913043,22" id="Fill-11" fill="#FFFCE9" sketch:type="MSShapeGroup" mask="url(#mask-2)"></path>
                    <path d="M23.724,16.898 L23.445,16.736 L23.159,16.88 L23.222,16.56 L23,16.326 L23.318,16.288 L23.469,16 L23.6,16.298 L23.916,16.354 L23.68,16.574 L23.724,16.898" id="Fill-12" fill="#FFFCE9" sketch:type="MSShapeGroup" mask="url(#mask-2)"></path>
                    <path d="M23.57,19.707 L23.351,19.581 L23.125,19.693 L23.175,19.442 L23,19.256 L23.25,19.228 L23.368,19 L23.473,19.235 L23.721,19.279 L23.535,19.453 L23.57,19.707" id="Fill-13" fill="#FFFCE9" sketch:type="MSShapeGroup" mask="url(#mask-2)"></path>
                    <path d="M11.547,23.676 L11.336,23.555 L11.119,23.664 L11.167,23.422 L11,23.244 L11.24,23.217 L11.353,23 L11.453,23.223 L11.691,23.266 L11.513,23.432 L11.547,23.676" id="Fill-14" fill="#FFFCE9" sketch:type="MSShapeGroup" mask="url(#mask-2)"></path>
                    <path d="M28.446,24.509 L28.275,24.418 L28.098,24.497 L28.138,24.317 L28,24.185 L28.196,24.164 L28.289,24 L28.371,24.169 L28.564,24.202 L28.419,24.326 L28.446,24.509" id="Fill-15" fill="#FFFCE9" sketch:type="MSShapeGroup" mask="url(#mask-2)"></path>
                    <path d="M11.547,23.676 L11.336,23.555 L11.119,23.664 L11.167,23.422 L11,23.244 L11.24,23.217 L11.353,23 L11.453,23.223 L11.691,23.266 L11.513,23.432 L11.547,23.676" id="Fill-16" fill="#FFFCE9" sketch:type="MSShapeGroup" mask="url(#mask-2)"></path>
                    <path d="M11.547,23.676 L11.336,23.555 L11.119,23.664 L11.167,23.422 L11,23.244 L11.24,23.217 L11.353,23 L11.453,23.223 L11.691,23.266 L11.513,23.432 L11.547,23.676" id="Fill-17" fill="#FFFCE9" sketch:type="MSShapeGroup" mask="url(#mask-2)"></path>
                    <path d="M15.547,23.676 L15.337,23.555 L15.119,23.663 L15.167,23.421 L15,23.244 L15.24,23.216 L15.354,23 L15.453,23.223 L15.692,23.266 L15.513,23.432 L15.547,23.676" id="Fill-18" fill="#FFFCE9" sketch:type="MSShapeGroup" mask="url(#mask-2)"></path>
                    <path d="M14.546,24.677 L14.337,24.556 L14.12,24.665 L14.168,24.423 L14,24.246 L14.24,24.218 L14.354,24 L14.454,24.225 L14.692,24.267 L14.514,24.434 L14.546,24.677" id="Fill-19" fill="#FFFCE9" sketch:type="MSShapeGroup" mask="url(#mask-2)"></path>
                    <path d="M21.548,22.677 L21.338,22.556 L21.12,22.665 L21.169,22.423 L21,22.246 L21.241,22.218 L21.354,22 L21.454,22.225 L21.692,22.266 L21.514,22.434 L21.548,22.677" id="Fill-20" fill="#FFFCE9" sketch:type="MSShapeGroup" mask="url(#mask-2)"></path>
                    <path d="M19.547,22.677 L19.338,22.556 L19.12,22.663 L19.169,22.421 L19,22.244 L19.24,22.216 L19.354,22 L19.454,22.223 L19.692,22.266 L19.514,22.433 L19.547,22.677" id="Fill-21" fill="#FFFCE9" sketch:type="MSShapeGroup" mask="url(#mask-2)"></path>
                    <path d="M14.342,21.425 L14.21,21.35 L14.074,21.416 L14.104,21.265 L14,21.154 L14.149,21.137 L14.221,21 L14.284,21.142 L14.433,21.168 L14.321,21.272 L14.342,21.425" id="Fill-22" fill="#FFFCE9" sketch:type="MSShapeGroup" mask="url(#mask-2)"></path>
                    <path d="M27.546,24.679 L27.336,24.557 L27.118,24.665 L27.167,24.423 L27,24.246 L27.239,24.218 L27.353,24 L27.453,24.225 L27.69,24.268 L27.512,24.434 L27.546,24.679" id="Fill-23" fill="#FFFCE9" sketch:type="MSShapeGroup" mask="url(#mask-2)"></path>
                    <path d="M26.453,25.563 L26.279,25.461 L26.1,25.552 L26.139,25.35 L26,25.202 L26.199,25.18 L26.293,25 L26.376,25.186 L26.573,25.22 L26.425,25.36 L26.453,25.563" id="Fill-24" fill="#FFFCE9" sketch:type="MSShapeGroup" mask="url(#mask-2)"></path>
                    <path d="M26.422,25.523 L26.26,25.429 L26.092,25.512 L26.129,25.326 L26,25.19 L26.185,25.167 L26.272,25 L26.35,25.173 L26.533,25.206 L26.396,25.335 L26.422,25.523" id="Fill-25" fill="#FFFCE9" sketch:type="MSShapeGroup" mask="url(#mask-2)"></path>
                    <path d="M29.406,23.504 L29.25,23.413 L29.089,23.494 L29.124,23.314 L29,23.183 L29.179,23.162 L29.263,23 L29.337,23.166 L29.514,23.199 L29.382,23.323 L29.406,23.504" id="Fill-26" fill="#FFFCE9" sketch:type="MSShapeGroup" mask="url(#mask-2)"></path>
                    <path d="M25.531,26.622 L25.326,26.51 L25.116,26.609 L25.163,26.388 L25,26.224 L25.233,26.199 L25.343,26 L25.44,26.206 L25.671,26.245 L25.498,26.398 L25.531,26.622" id="Fill-27" fill="#FFFCE9" sketch:type="MSShapeGroup" mask="url(#mask-2)"></path>
                    <path d="M26.484,27.623 L26.298,27.511 L26.105,27.61 L26.148,27.388 L26,27.225 L26.212,27.2 L26.313,27 L26.401,27.207 L26.612,27.246 L26.454,27.398 L26.484,27.623" id="Fill-28" fill="#FFFCE9" sketch:type="MSShapeGroup" mask="url(#mask-2)"></path>
                    <path d="M24.406,25.504 L24.25,25.413 L24.089,25.493 L24.124,25.314 L24,25.181 L24.179,25.162 L24.263,25 L24.337,25.166 L24.514,25.199 L24.382,25.323 L24.406,25.504" id="Fill-29" fill="#FFFCE9" sketch:type="MSShapeGroup" mask="url(#mask-2)"></path>
                    <path d="M23.407,25.504 L23.25,25.413 L23.089,25.493 L23.125,25.314 L23,25.181 L23.179,25.162 L23.263,25 L23.338,25.166 L23.514,25.199 L23.382,25.323 L23.407,25.504" id="Fill-30" fill="#FFFCE9" sketch:type="MSShapeGroup" mask="url(#mask-2)"></path>
                    <path d="M20.406,23.503 L20.25,23.413 L20.088,23.493 L20.124,23.314 L20,23.181 L20.178,23.16 L20.262,23 L20.337,23.166 L20.513,23.198 L20.381,23.321 L20.406,23.503" id="Fill-31" fill="#FFFCE9" sketch:type="MSShapeGroup" mask="url(#mask-2)"></path>
                    <path d="M20.344,27.425 L20.211,27.35 L20.075,27.417 L20.105,27.265 L20,27.153 L20.151,27.136 L20.222,27 L20.285,27.14 L20.435,27.167 L20.323,27.272 L20.344,27.425" id="Fill-32" fill="#FFFCE9" sketch:type="MSShapeGroup" mask="url(#mask-2)"></path>
                    <path d="M16.7905405,20 L16.4874517,19.820059 L16.1727799,19.979351 L16.242278,19.6234022 L16,19.3628319 L16.3474903,19.3215339 L16.5125483,19 L16.6563707,19.3303835 L17,19.394297 L16.742278,19.640118 L16.7905405,20" id="Fill-33" fill="#FFFCE9" sketch:type="MSShapeGroup" mask="url(#mask-2)"></path>
                    <path d="M30.5308454,23 C30.6882457,22.6092586 30.891343,22.0212216 31,21.4832304 C25.5173902,16.9184852 19.4061945,14.5807736 11.6844377,15.0619822 C11.4082254,15.5643641 11.185834,16.0908063 11,16.6605574 C20.1485149,15.8328785 26.85377,19.6729235 30.5308454,23" id="Fill-34" fill="#FFFFFF" sketch:type="MSShapeGroup" mask="url(#mask-2)"></path>
                    <path d="M27.0551758,20.4151397 L27.2328375,20.5055444 C27.2050778,20.5643928 27.1976753,20.6138596 27.2106297,20.658209 C27.2235842,20.7025585 27.2568958,20.740085 27.3087138,20.7724943 C27.3642331,20.808315 27.4132751,20.8236668 27.4567652,20.8185495 C27.5011806,20.815138 27.5344922,20.7980805 27.5557746,20.7690828 C27.5696544,20.7511724 27.574281,20.7307034 27.5724304,20.7102344 C27.5696544,20.6897654 27.5576252,20.665032 27.5363428,20.63774 C27.5206124,20.6189768 27.4826742,20.5780388 27.4225283,20.5166318 C27.3457267,20.4373145 27.3013112,20.3707902 27.2855808,20.3170591 C27.2652237,20.2411532 27.2781782,20.1712175 27.3235189,20.1089576 C27.3531292,20.0688725 27.392918,20.0390219 27.4419601,20.0194058 C27.4928527,19.9997897 27.5474467,19.9946724 27.6075926,20.0057598 C27.6668132,20.0159943 27.7306603,20.0424334 27.7954328,20.0842243 C27.9027701,20.1507485 27.9675426,20.22239 27.9897503,20.2991487 C28.011958,20.3767603 27.9980782,20.4535191 27.9481108,20.5268663 L27.7704491,20.42708 C27.7935822,20.3818776 27.7982088,20.3426453 27.7861796,20.3093832 C27.7760011,20.276974 27.7454655,20.2454176 27.6973488,20.2138612 C27.6473814,20.1831578 27.6011153,20.1686589 27.5594759,20.1703646 C27.5326416,20.1703646 27.5113592,20.1805991 27.4956287,20.2010681 C27.4826742,20.2198314 27.4789729,20.2411532 27.4873008,20.2650337 C27.4956287,20.2965901 27.5363428,20.3460568 27.6066673,20.4176983 C27.6769917,20.4876341 27.7251084,20.5447767 27.7500921,20.5899791 C27.7760011,20.6343285 27.7880302,20.6803838 27.7852543,20.7289977 C27.784329,20.7767586 27.7648972,20.8262254 27.7288097,20.8756921 C27.6945728,20.9208945 27.6510827,20.9558624 27.5946381,20.9771842 C27.5381935,21.0002119 27.4789729,21.006182 27.4151258,20.9933889 C27.3512786,20.9823015 27.2828048,20.9533037 27.2087791,20.9055427 C27.1005165,20.8390185 27.0348187,20.7639655 27.0107603,20.6820895 C26.9876273,20.6002136 27.0015071,20.5106617 27.0551758,20.4151397" id="Fill-35" fill="#329D48" sketch:type="MSShapeGroup" mask="url(#mask-2)"></path>
                    <path d="M27.0477665,19.4328892 L27.2318532,19.51552 C27.206623,19.5742987 27.2000819,19.6254106 27.2159675,19.6688556 C27.2318532,19.7123007 27.2654934,19.7489309 27.3196915,19.779598 C27.3776274,19.8119689 27.4280877,19.8264506 27.4720068,19.8204875 C27.515926,19.8145245 27.5486317,19.7966353 27.5691896,19.7668201 C27.5822719,19.7480791 27.5860097,19.7276343 27.5841408,19.7071896 C27.580403,19.6867448 27.5663863,19.6637445 27.543025,19.6356329 C27.5271394,19.6177438 27.486958,19.578558 27.4243499,19.5197794 C27.3430527,19.4431115 27.2944613,19.3792217 27.2767068,19.3255542 C27.2533455,19.2505902 27.26269,19.1807373 27.3056747,19.1168474 C27.3337082,19.0759579 27.3720207,19.0435871 27.4215465,19.0239942 C27.4720068,19.0018457 27.5280738,18.9950308 27.5869442,19.0035494 C27.6486179,19.0112162 27.7130949,19.0350684 27.7813098,19.0734023 C27.8925093,19.1364403 27.9607242,19.2062932 27.9859543,19.282961 C28.0121189,19.358777 28.0018399,19.4345929 27.954183,19.5112607 L27.7710308,19.4167037 C27.7906543,19.3707031 27.7953265,19.3315173 27.7813098,19.2991464 C27.7691619,19.2676274 27.7373906,19.2369603 27.6878648,19.2079969 C27.6355356,19.1781817 27.5888131,19.1654037 27.5458284,19.1688112 C27.5187293,19.169663 27.4981714,19.1815891 27.4841547,19.2020339 C27.4710724,19.2216268 27.468269,19.2420715 27.4776135,19.2659237 C27.4888269,19.2965908 27.5299427,19.345999 27.6037643,19.4141481 C27.6785203,19.4814454 27.729915,19.5376685 27.7570141,19.5811136 C27.785982,19.6245587 27.7990643,19.6705594 27.7990643,19.7174119 C27.7999988,19.7668201 27.7822442,19.8170801 27.7476696,19.868192 C27.7168327,19.9141926 27.6729136,19.9491191 27.617781,19.9738232 C27.561714,19.9985272 27.5009748,20.0053421 27.4364977,19.9959716 C27.3720207,19.9866011 27.3019369,19.9610452 27.2243776,19.9167482 C27.113178,19.8537103 27.0430943,19.7813018 27.0150608,19.7003746 C26.9870273,19.6194475 26.9982407,19.5300017 27.0477665,19.4328892" id="Fill-36" fill="#329D48" sketch:type="MSShapeGroup" mask="url(#mask-2)"></path>
                    <path d="M26,19.6833811 L26.4517134,19 L27,19.3094556 L26.923676,19.4240688 L26.5249221,19.1998567 L26.4244548,19.3517192 L26.7951713,19.5601719 L26.7196262,19.6755014 L26.3481308,19.4663324 L26.2258567,19.6518625 L26.6386293,19.8853868 L26.5630841,20 L26,19.6833811" id="Fill-37" fill="#329D48" sketch:type="MSShapeGroup" mask="url(#mask-2)"></path>
                    <path d="M23.4510451,17.6046267 L23.5270802,17.4643869 L23.9126229,17.652493 L23.7310332,17.984198 C23.6746777,17.9993136 23.6040098,18.0043522 23.5181349,17.9959546 C23.434049,17.9858775 23.3553303,17.9640437 23.2828733,17.9287738 C23.1889476,17.8842666 23.1182797,17.8263232 23.069975,17.7566232 C23.0216703,17.6877629 22.997518,17.6096653 23.0002016,17.5240098 C23.0037797,17.4400339 23.026143,17.356058 23.069975,17.2771206 C23.1182797,17.1897856 23.1791077,17.1226049 23.2551428,17.0738988 C23.3302834,17.024353 23.4152638,17 23.5091896,17 C23.580752,17 23.6594707,17.0218337 23.7435566,17.0621422 C23.8535839,17.115047 23.9278299,17.178029 23.9654002,17.2519278 C24.0029705,17.3258266 24.0101267,17.404764 23.9859744,17.4904195 L23.7918612,17.4349953 C23.8017011,17.3879688 23.7954394,17.3451411 23.7739706,17.3039929 C23.7533964,17.2636844 23.7167207,17.2309338 23.6648379,17.205741 C23.5870137,17.1679519 23.5118731,17.1612338 23.4403107,17.1855868 C23.3687482,17.2099398 23.3079202,17.2678832 23.2578264,17.3602568 C23.2041546,17.4585086 23.186264,17.5441641 23.2068382,17.6163834 C23.2256233,17.6886027 23.273928,17.7423473 23.3490686,17.7792967 C23.3866389,17.7969316 23.4277873,17.809528 23.4725138,17.8137268 C23.5181349,17.8187654 23.5601778,17.8170859 23.5977481,17.8103678 L23.654998,17.7053979 L23.4510451,17.6046267" id="Fill-38" fill="#329D48" sketch:type="MSShapeGroup" mask="url(#mask-2)"></path>
                    <path d="M17,15.8763867 L17.1322449,15 L17.4032653,15.0388273 L17.477551,15.659271 L17.7281633,15.0855784 L18,15.1236133 L17.8677551,16 L17.6995918,15.9762282 L17.8040816,15.2868463 L17.5208163,15.9500792 L17.3461224,15.9247227 L17.2726531,15.2099842 L17.1681633,15.8993661 L17,15.8763867" id="Fill-39" fill="#329D48" sketch:type="MSShapeGroup" mask="url(#mask-2)"></path>
                    <path d="M16,15.9337248 L16.104,15 L16.925,15.0654362 L16.908,15.2239933 L16.31,15.1761745 L16.287,15.3833893 L16.843,15.4261745 L16.825,15.5847315 L16.269,15.5394295 L16.241,15.7936242 L16.86,15.8431208 L16.843,16 L16,15.9337248" id="Fill-40" fill="#329D48" sketch:type="MSShapeGroup" mask="url(#mask-2)"></path>
                    <path d="M12.0003473,15.4934461 C12.0031257,15.3956592 12.0216487,15.313449 12.0540638,15.2468155 C12.0799959,15.1983547 12.1133372,15.1550862 12.1540876,15.1161445 C12.1957642,15.0789335 12.2411454,15.0512417 12.2902311,15.0330689 C12.3550614,15.0088385 12.4291531,14.9984541 12.5134324,15.0001848 C12.6653204,15.0045117 12.7847933,15.0521071 12.8737034,15.142971 C12.9616873,15.2338349 13.00429,15.3567175 12.9996593,15.514215 C12.9950286,15.6708471 12.9468689,15.791999 12.8533282,15.8776707 C12.7607135,15.9633424 12.6384622,16.0040148 12.4865742,15.999688 C12.33376,15.9962265 12.213361,15.9486311 12.1253771,15.8594979 C12.0373932,15.768634 11.9957166,15.6466167 12.0003473,15.4934461" id="Fill-41" fill="#329D48" sketch:type="MSShapeGroup" mask="url(#mask-2)"></path>
                    <path d="M12.0003876,15.376025 C11.9963876,15.502025 12.0233876,15.599025 12.0793876,15.666025 C12.1363876,15.733025 12.2083876,15.768025 12.2983876,15.769025 C12.3873876,15.772025 12.4623876,15.741025 12.5213876,15.678025 C12.5803876,15.616025 12.6123876,15.520025 12.6153876,15.390025 C12.6193876,15.261025 12.5933876,15.166025 12.5383876,15.101025 C12.4853876,15.036025 12.4113876,15.003025 12.3193876,15.000025 C12.2263876,14.999025 12.1513876,15.028025 12.0933876,15.091025 C12.0343876,15.152025 12.0033876,15.247025 12.0003876,15.376025" id="Fill-42" fill="#F6FBFA" sketch:type="MSShapeGroup" mask="url(#mask-2)"></path>
                    <path d="M13,15.9902482 L13.013,15 L13.486,15.0053191 C13.605,15.0062057 13.691,15.0159574 13.745,15.0345745 C13.799,15.052305 13.842,15.0842199 13.873,15.1303191 C13.905,15.1755319 13.92,15.2287234 13.92,15.287234 C13.919,15.3617021 13.893,15.4219858 13.844,15.4707447 C13.794,15.518617 13.72,15.5487589 13.622,15.5593972 C13.67,15.5859929 13.71,15.6134752 13.741,15.643617 C13.773,15.6746454 13.815,15.7278369 13.867,15.8058511 L14,16 L13.732,15.9973404 L13.573,15.7810284 C13.516,15.7030142 13.477,15.6551418 13.456,15.6338652 C13.435,15.6134752 13.413,15.5992908 13.389,15.5913121 C13.365,15.5842199 13.327,15.5806738 13.276,15.5789007 L13.231,15.5789007 L13.225,15.9929078 L13,15.9902482" id="Fill-43" fill="#329D48" sketch:type="MSShapeGroup" mask="url(#mask-2)"></path>
                    <path d="M13,15.284 L13.166,15.285 C13.273,15.287 13.341,15.284 13.368,15.274 C13.395,15.265 13.416,15.25 13.431,15.228 C13.446,15.205 13.455,15.178 13.455,15.144 C13.455,15.106 13.446,15.077 13.425,15.054 C13.406,15.03 13.378,15.015 13.341,15.009 C13.323,15.006 13.269,15.003 13.178,15.003 L13.003,15 L13,15.284" id="Fill-44" fill="#FFFFFF" sketch:type="MSShapeGroup" mask="url(#mask-2)"></path>
                    <path d="M14.055,15 L14.466,15.0167037 C14.558,15.0210995 14.627,15.0316492 14.676,15.0448363 C14.74,15.0659358 14.794,15.097585 14.838,15.1433005 C14.882,15.189016 14.915,15.244402 14.935,15.3077004 C14.956,15.3718779 14.963,15.4483634 14.958,15.5406735 C14.954,15.6206756 14.938,15.690128 14.913,15.7481515 C14.88,15.818483 14.837,15.87299 14.783,15.9151889 C14.742,15.9468381 14.688,15.9714541 14.621,15.9863995 C14.57,15.9987075 14.504,16.0022241 14.421,15.9987075 L14,15.9802455 L14.055,15" id="Fill-45" fill="#329D48" sketch:type="MSShapeGroup" mask="url(#mask-2)"></path>
                    <path d="M15.037,15 L15,15.739 L15.167,15.747 C15.23,15.751 15.275,15.75 15.304,15.745 C15.34,15.736 15.371,15.722 15.396,15.702 C15.421,15.681 15.443,15.646 15.46,15.598 C15.479,15.549 15.49,15.48 15.494,15.394 C15.498,15.308 15.494,15.242 15.481,15.194 C15.469,15.147 15.449,15.111 15.423,15.082 C15.397,15.056 15.363,15.037 15.321,15.025 C15.29,15.017 15.23,15.01 15.138,15.006 L15.037,15" id="Fill-46" fill="#FFFFFF" sketch:type="MSShapeGroup" mask="url(#mask-2)"></path>
                    <path d="M20,16.9526316 L20.2543459,16 L20.5977128,16.0745614 C20.7278205,16.1035088 20.8109721,16.1263158 20.8481457,16.1438596 C20.9048844,16.1719298 20.9479276,16.2131579 20.9753187,16.2710526 C21.003688,16.327193 21.007601,16.3938596 20.9870577,16.4692982 C20.9714057,16.527193 20.9469493,16.5745614 20.9117322,16.6087719 C20.8774933,16.6429825 20.8393414,16.6692982 20.7972765,16.6833333 C20.7552116,16.6982456 20.714125,16.7052632 20.6740166,16.704386 C20.6211909,16.7017544 20.5458654,16.6912281 20.4490183,16.6701754 L20.3091281,16.6394737 L20.2142375,17 L20,16.9526316" id="Fill-47" fill="#329D48" sketch:type="MSShapeGroup" mask="url(#mask-2)"></path>
                    <path d="M20.073,16 L20,16.307 L20.119,16.336 C20.205,16.357 20.264,16.365 20.296,16.361 C20.328,16.356 20.355,16.344 20.377,16.323 C20.4,16.304 20.415,16.278 20.422,16.245 C20.431,16.206 20.428,16.17 20.411,16.139 C20.394,16.107 20.369,16.085 20.335,16.07 C20.309,16.058 20.258,16.043 20.179,16.025 L20.073,16" id="Fill-48" fill="#FFFFFF" sketch:type="MSShapeGroup" mask="url(#mask-2)"></path>
                    <path d="M21,16.7591925 L21.3230971,16 L21.7134333,16.1146359 C21.8103624,16.1427541 21.8784747,16.1694304 21.9177703,16.1968277 C21.9553195,16.222783 21.9815165,16.258111 21.9928686,16.3006489 C22.0050939,16.3431867 22.0016009,16.3871665 21.9823898,16.4325883 C21.9579392,16.4888248 21.9177703,16.5299207 21.8618833,16.555155 C21.805123,16.5803893 21.7343909,16.5861572 21.6496871,16.5724585 C21.6819968,16.6034607 21.7064474,16.6344629 21.7221656,16.6647441 C21.7387571,16.6957462 21.7562218,16.7476568 21.775433,16.8190339 L21.8243342,17 L21.6034056,16.9358327 L21.5387862,16.7310743 C21.5160821,16.6575342 21.5003638,16.6113915 21.4890118,16.591204 C21.478533,16.5702956 21.463688,16.555155 21.4470965,16.5428983 C21.4296318,16.5320836 21.3999418,16.519827 21.3571533,16.5075703 L21.3204774,16.4967556 L21.1851259,16.813987 L21,16.7591925" id="Fill-49" fill="#329D48" sketch:type="MSShapeGroup" mask="url(#mask-2)"></path>
                    <path d="M21,17.267 L21.157,17.323 C21.258,17.359 21.323,17.378 21.351,17.378 C21.379,17.378 21.404,17.371 21.427,17.354 C21.448,17.338 21.464,17.315 21.475,17.282 C21.488,17.248 21.488,17.215 21.477,17.186 C21.466,17.158 21.445,17.134 21.412,17.116 C21.396,17.108 21.344,17.09 21.259,17.059 L21.093,17 L21,17.267" id="Fill-50" fill="#FFFFFF" sketch:type="MSShapeGroup" mask="url(#mask-2)"></path>
                    <path d="M22.032418,17.3684255 C22.0631858,17.274966 22.1030029,17.2012273 22.1536793,17.146352 C22.1907816,17.1060529 22.2342185,17.0743282 22.2830849,17.0477479 C22.3337613,17.0211677 22.3844376,17.0065915 22.435114,17.0014469 C22.5029841,16.9963023 22.5753789,17.0048766 22.6541082,17.0271697 C22.7961829,17.0691836 22.8948208,17.1446371 22.9527367,17.2535303 C23.0106525,17.3624235 23.0151772,17.4918949 22.9672156,17.6402297 C22.9183491,17.787707 22.8378099,17.8905982 22.726503,17.9489032 C22.6142911,18.0072082 22.4876002,18.0157825 22.3473353,17.9737686 C22.2043556,17.9308973 22.1039079,17.8571586 22.046897,17.7491228 C21.9889811,17.6402297 21.9853614,17.5133306 22.032418,17.3684255" id="Fill-51" fill="#329D48" sketch:type="MSShapeGroup" mask="url(#mask-2)"></path>
                    <path d="M22.0291362,17.2893926 C21.9911362,17.4093926 21.9901362,17.5103926 22.0271362,17.5913926 C22.0631362,17.6713926 22.1231362,17.7233926 22.2091362,17.7503926 C22.2951362,17.7773926 22.3741362,17.7683926 22.4481362,17.7233926 C22.5221362,17.6793926 22.5791362,17.5933926 22.6171362,17.4713926 C22.6541362,17.3483926 22.6571362,17.2493926 22.6211362,17.1723926 C22.5871362,17.0953926 22.5251362,17.0423926 22.4371362,17.0163926 C22.3491362,16.9883926 22.2681362,16.9963926 22.1951362,17.0393926 C22.1221362,17.0833926 22.0671362,17.1663926 22.0291362,17.2893926" id="Fill-52" fill="#FFFFFF" sketch:type="MSShapeGroup" mask="url(#mask-2)"></path>
                    <path d="M24,18.6820372 L24.4205608,18 L24.7662272,18.1500344 C24.8534668,18.1871989 24.9127239,18.2209222 24.9439985,18.2505162 C24.976096,18.2794219 24.9950254,18.3145217 24.9991405,18.357192 C25.0032556,18.3984859 24.9925564,18.4397798 24.9678659,18.4803854 C24.9365913,18.5313145 24.8921485,18.5657261 24.8361835,18.5836201 C24.7793954,18.6008259 24.7127312,18.5994494 24.6361908,18.5760496 C24.6617042,18.6097729 24.6789876,18.6414315 24.6888637,18.6724019 C24.6995629,18.7026841 24.7069701,18.752925 24.7143772,18.8231246 L24.7316605,19 L24.5349599,18.9139711 L24.5069774,18.714384 C24.4987472,18.6421198 24.4905171,18.5973847 24.4831099,18.577426 C24.4757028,18.5560908 24.4650036,18.5395733 24.4510123,18.5271851 C24.4370211,18.5134205 24.4106846,18.4989677 24.3728259,18.4831383 L24.3399053,18.4686855 L24.164603,18.7543014 L24,18.6820372" id="Fill-53" fill="#329D48" sketch:type="MSShapeGroup" mask="url(#mask-2)"></path>
                    <path d="M25,18.253 L25.148,18.328 C25.244,18.379 25.305,18.405 25.333,18.41 C25.361,18.415 25.388,18.41 25.411,18.397 C25.435,18.384 25.455,18.364 25.47,18.333 C25.487,18.301 25.492,18.268 25.484,18.239 C25.478,18.208 25.459,18.183 25.43,18.161 C25.415,18.15 25.367,18.123 25.286,18.081 L25.13,18 L25,18.253" id="Fill-54" fill="#FFFFFF" sketch:type="MSShapeGroup" mask="url(#mask-2)"></path>
                    <path d="M28.1048883,21.2462695 C28.1610835,21.1658942 28.2199127,21.1060403 28.2831323,21.0675628 C28.3287908,21.039346 28.3788396,21.0196797 28.4332786,21.0085639 C28.4877176,20.9974482 28.5386445,20.9974482 28.5869371,21.0068538 C28.6519128,21.0188246 28.7168884,21.0478965 28.782742,21.0906493 C28.9021567,21.1693145 28.9724006,21.268501 28.9934737,21.3890638 C29.015425,21.5087717 28.9820591,21.6327548 28.8924981,21.7618683 C28.8038152,21.8892716 28.6993274,21.9653716 28.5790347,21.9910233 C28.457864,22.0158199 28.3375713,21.9893131 28.2190347,21.910648 C28.098742,21.8311278 28.0276201,21.7310862 28.0065469,21.6130885 C27.9845957,21.4942357 28.0179615,21.3728178 28.1048883,21.2462695" id="Fill-55" fill="#329D48" sketch:type="MSShapeGroup" mask="url(#mask-2)"></path>
                    <path d="M29.0912158,21.2005027 C29.0212158,21.3045027 28.9912158,21.4015027 29.0022158,21.4875027 C29.0152158,21.5745027 29.0582158,21.6425027 29.1322158,21.6925027 C29.2072158,21.7435027 29.2852158,21.7585027 29.3682158,21.7365027 C29.4522158,21.7155027 29.5302158,21.6515027 29.6032158,21.5435027 C29.6742158,21.4375027 29.7052158,21.3425027 29.6932158,21.2585027 C29.6832158,21.1755027 29.6392158,21.1075027 29.5612158,21.0565027 C29.4852158,21.0035027 29.4052158,20.9885027 29.3222158,21.0085027 C29.2402158,21.0295027 29.1632158,21.0945027 29.0912158,21.2005027" id="Fill-56" fill="#FFFFFF" sketch:type="MSShapeGroup" mask="url(#mask-2)"></path>
                    <path d="M19,16.785 L19.179,16 L19.758,16.133 L19.729,16.266 L19.307,16.169 L19.267,16.342 L19.659,16.433 L19.629,16.565 L19.238,16.475 L19.189,16.688 L19.625,16.789 L19.595,16.921 L19,16.785" id="Fill-57" fill="#329D48" sketch:type="MSShapeGroup" mask="url(#mask-2)"></path>
                </g>
            </g>
        </g>
    </g>
</svg>