<svg xmlns="http://www.w3.org/2000/svg" width="40" height="40" viewBox="0 0 40 40" xmlns:xlink="http://www.w3.org/1999/xlink">
  <defs>
    <path id="a" d="M0 21.54C.8 31.87 9.43 40 19.97 40 31.03 40 40 31.04 40 19.98 40 9.35 31.7.66 21.25 0H18.7C8.73.63.76 8.5 0 18.42v3.12"/>
  </defs>
  <g fill="none" fill-rule="evenodd">
    <mask id="b" fill="#fff">
      <use xlink:href="#a"/>
    </mask>
    <path fill="#249D50" d="M-8-9h57v58H-8V-9" mask="url(#b)"/>
    <path fill="#F0E33D" d="M20.1 35L44 19.52 19.97 4-4 19.56 20.1 35" mask="url(#b)"/>
    <path fill="#284D8F" d="M30 19c0-5.53-4.48-10-10-10s-10 4.47-10 10c0 5.5 4.46 10 9.98 10 5.53 0 10-4.46 10.02-9.97V19H20h10" mask="url(#b)"/>
    <path fill="#FFFCE9" d="M16.8 26l-.3-.18-.33.16.07-.36-.24-.26.35-.04.16-.32.2.33.4.07-.2.24.1.36m7 1l-.3-.18-.3.16.1-.36-.2-.26.4-.04.2-.32.2.33.4.07-.2.24V27M21 24.88l-.27-.16-.3.14.1-.3-.23-.24.3-.04.17-.28.15.3.3.05-.23.2v.33m7-1.02l-.3-.15-.3.2v-.3l-.2-.2h.3l.1-.2.1.3.3.1-.3.2v.4m-7-2.9l-.3-.1-.4.2v-.3l-.2-.2h.3l.1-.3.2.4.4.1-.3.3v.4m-8-3l-.3-.1-.3.1.1-.4-.3-.2h.3l.1-.3.2.3.3.1-.2.2v.4m1 4l-.3-.1-.4.1.1-.3-.2-.3h.4l.1-.3.2.4.4.1-.3.2.1.4M24 17l-.28-.2-.3.13.1-.3-.26-.24.3-.1.15-.3.2.3h.3l-.2.2v.3m-.1 2.8l-.2-.2-.2.1.1-.3-.2-.2h.3l.1-.3.1.2h.3l-.1.1v.3m-12 4l-.2-.2-.3.1.1-.2-.1-.2h.2l.1-.3.1.2h.2l-.2.1v.2m16.9.8l-.2-.1h-.1l.1-.2-.2-.2h.2l.1-.2v.2h.2l-.2.1v.2M11.9 23l-.2-.16-.2.1-.2-.2h.23l.1-.2.1.2.2.1-.2.1v.27m0 0l-.2-.1-.22.1V23l-.1-.2h.3l.1-.2.1.2.3.06-.2.2.1.3m4 0l-.2-.1-.2.1v-.2l-.1-.1h.3l.1-.2.1.2.3.1-.2.2.1.3m-1 1l-.2-.1-.2.1.1-.2-.1-.2.3-.07.1-.2.1.3h.2l-.2.2v.2m7-2l-.2-.1-.3.1.1-.3-.1-.2h.2l.1-.2.1.2h.27l-.2.1.05.2m-2 0l-.2-.1-.2.1v-.3l-.2-.2h.2l.1-.2.1.2h.3l-.2.1v.2m-5.2-1.27l-.1-.07-.1.02-.1-.1.1-.04.1-.14v.14l.1.04-.1.1v.2M28 24.4l-.2-.1-.2.1v-.2L27 24h.24l.1-.2.1.3h.3l-.2.15.03.3m-1.1.9l-.16-.1-.1.1.1-.2-.2-.2.2-.04.1-.1.1.2.2.1-.2.2v.2m0 .1l-.2-.1-.2.1v-.2l-.1-.1h.1l.1-.2.1.2h.2l-.1.2v.2m3-2l-.1-.1-.2.1v-.2l-.1-.1h.2l.1-.1.1.2.2.1-.1.1.1.2m-3.9 3l-.2-.1-.2.1v-.2l-.1-.2h.2l.1-.2.1.2.2.1-.1.2v.2m1 1l-.2-.1-.2.1v-.2l-.1-.2h.2l.1-.2.1.2.2.1-.1.2v.2m-2.1-2.1l-.1-.1-.2.1v-.2l-.1-.1h.2l.06-.1.1.2.2.1-.1.1.1.2m-1 0l-.1-.1-.1.1V26l-.1-.1h.1l.1-.16.1.15h.2l-.1.1v.2m-3-2l-.2-.1-.1.1V24l-.1-.1h.2l.1-.2.1.2h.2l-.1.1v.1m-.1 3.9l-.1-.1-.16.1v-.2l-.1-.1h.1l.05-.13.1.14.1.1-.1.1v.1m-3.8-8l-.3-.1-.3.2.1-.3-.26-.23.34-.03.16-.32.2.37.4.04-.2.2.1.3" mask="url(#b)"/>
    <path fill="#FFF" d="M30.53 23c.16-.4.36-.98.47-1.52-5.48-4.56-11.6-6.9-19.32-6.42-.27.5-.5 1.03-.68 1.6 9.15-.83 15.85 3 19.53 6.34" mask="url(#b)"/>
    <path fill="#329D48" d="M27.06 20.42l.17.1c-.02.04-.03.1-.02.14l.1.1c.1.05.1.06.2.06s.1-.02.1-.05v-.06l-.1-.1c0-.1-.1-.1-.1-.2s0-.1.1-.2c.1 0 .1-.1.1-.1h.2c.1 0 .2 0 .2.1l.2.2v.3l-.1-.1v-.1l-.1-.1h-.2v.1l.1.2.2.2v.3l-.1.1h-.2s-.1 0-.2-.1c-.1 0-.2-.1-.2-.2s0-.1.1-.2m0-1l.2.1v.1s0 .1.1.1h.2V20l-.1-.1-.1-.2c0-.1 0-.14.1-.2.1-.04.1-.1.2-.1l.2-.02.2.1s.2.1.2.2c.1.1.1.15 0 .2l-.2-.1c0-.04.1-.1 0-.1 0-.04 0-.1-.1-.1l-.1-.04H28v.1s.04.1.1.1l.17.2c.03 0 .04.1.04.1s0 .1-.1.1l-.1.1h-.2c-.1 0-.1-.1-.2-.1l-.2-.2c0-.1 0-.2.1-.3m-1 .2l.5-.7.6.3-.1.1-.4-.2-.1.14.4.2v.1l-.3-.2-.1.14.4.2v.1l-.5-.4m-2.6-2.1l.1-.1.4.2-.1.3h-.2c-.1 0-.2-.1-.2-.1-.1-.07-.2-.1-.2-.2-.1 0-.1-.1-.1-.2s0-.16.1-.24c0-.1.1-.2.2-.2 0-.1.1-.1.2-.1s.2 0 .3.06c.1.06.2.1.3.2v.23l-.2-.1V17h-1c-.1-.02-.2-.03-.2 0-.1 0-.1.08-.2.17v.27c.06.1.1.14.18.18l.15.05h.1l.1-.1-.2-.1m-6.5-1.7l.1-.88h.3l.1.6.3-.6h.2l-.1.9-.1-.1.1-.7-.2.6H18l-.1-.7-.1.7-.1-.1m-1 0l.1-.9h.9v.2H17l-.04.2h.5v.1l-.6-.1v.3h.6v.1l-.8-.1m-4-.4c0-.1 0-.2.06-.3l.1-.2.14-.1h.2c.2 0 .3 0 .4.1.1.1.1.2.1.3 0 .1-.06.3-.16.4-.1 0-.2.1-.4.1s-.3-.1-.35-.2c-.1-.1-.1-.2-.1-.4" mask="url(#b)"/>
    <path fill="#F6FBFA" d="M12 15.38c0 .12.02.22.08.3.06.05.13.1.22.1.1 0 .16-.04.22-.1.06-.06.1-.16.1-.3 0-.12-.03-.2-.08-.28-.05-.06-.13-.1-.22-.1-.1 0-.17.03-.23.1-.1.05-.1.15-.1.28" mask="url(#b)"/>
    <path fill="#329D48" d="M13 16v-1h.5c.1 0 .2.02.24.03.06.02.1.05.13.1.04.05.05.1.05.16s-.03.1-.08.1-.12.1-.22.1h.12l.13.1.13.2h-.27l-.16-.3c-.05-.1-.1-.1-.1-.2l-.08-.1h-.3v.4H13" mask="url(#b)"/>
    <path fill="#FFF" d="M13 15.28h.37c.03 0 .05-.03.06-.05.02-.03.03-.05.03-.1 0-.02 0-.05-.04-.08 0-.02-.04-.04-.08-.04H13v.3" mask="url(#b)"/>
    <path fill="#329D48" d="M14.05 15l.42.02c.1 0 .16 0 .2.02l.17.1.1.17c.02.1.02.2.02.3 0 .1-.02.2-.05.2 0 .1 0 .2-.1.2l-.1.1h-.6l.1-1" mask="url(#b)"/>
    <path fill="#FFF" d="M15.04 15l-.04.74h.3c.04 0 .07-.02.1-.04l.06-.1c.02-.05.03-.12.03-.2 0-.1 0-.16-.1-.2 0-.05-.1-.1-.1-.12l-.1-.05L15 15" mask="url(#b)"/>
    <path fill="#329D48" d="M20 16.95l.25-.95.35.07.25.07c.05.03.1.07.13.13.02.06.03.12 0 .2 0 .06-.03.1-.07.14 0 .1 0 .1-.1.1 0 0-.1.1-.1 0h-.3l-.1.4h-.2" mask="url(#b)"/>
    <path fill="#FFF" d="M20.07 16l-.07.3.12.04c.08.02.14.02.18.02.03 0 .05-.02.08-.04.02-.02.04-.04.04-.07v-.1c-.03-.04-.05-.06-.1-.08l-.14-.05-.1-.02" mask="url(#b)"/>
    <path fill="#329D48" d="M21 16.76l.32-.76.4.1.2.1c.04.02.06.06.07.1 0 .04 0 .1-.1.13 0 .06-.1.1-.1.13-.1.02-.2.03-.2 0V17l-.2-.06-.1-.2-.1-.15-.1-.1-.1-.1-.1.3-.2-.1" mask="url(#b)"/>
    <path fill="#FFF" d="M21 17.27l.16.05c.1.04.16.06.2.06.02 0 .04 0 .07-.03.02 0 .03-.04.05-.07v-.1c0-.02-.04-.05-.07-.06l-.1-.06-.1-.06-.1.27" mask="url(#b)"/>
    <path fill="#329D48" d="M22.03 17.37c.03-.1.07-.17.12-.22.04-.04.08-.08.13-.1.05-.03.1-.04.16-.05.06 0 .14 0 .2.03.16.04.25.1.3.22.07.1.08.24.03.4-.05.14-.13.24-.24.3-.12.06-.24.07-.38.02-.15-.04-.25-.1-.3-.22-.06-.1-.06-.24-.02-.38" mask="url(#b)"/>
    <path fill="#FFF" d="M22.03 17.3c-.04.1-.04.2 0 .3.03.07.1.12.18.15.1.03.2.02.3-.03.1-.04.2-.13.2-.25.1-.12.1-.22 0-.3 0-.07-.1-.13-.2-.15-.1-.03-.1-.02-.2.02s-.1.13-.1.25" mask="url(#b)"/>
    <path fill="#329D48" d="M24 18.68l.42-.68.35.15c.08.04.14.07.17.1.04.03.06.06.06.1 0 .05 0 .1-.03.13-.03.05-.08.1-.13.1-.06.02-.13.02-.2 0l.05.1V19l-.2-.1v-.2c0-.06 0-.1-.1-.12 0-.02 0-.04-.1-.05 0-.02-.1-.03-.1-.05h-.1l-.2.27-.2-.07" mask="url(#b)"/>
    <path fill="#FFF" d="M25 18.25l.15.08.18.08c.03.1.06 0 .08 0h.1v-.1l-.1-.1-.1-.1-.1.3" mask="url(#b)"/>
    <path fill="#329D48" d="M28.1 21.25c.06-.08.12-.14.18-.18l.15-.06h.16l.1.1c.1.1.2.2.2.3 0 .1 0 .3-.1.4-.1.2-.2.2-.3.3s-.3 0-.4-.1c-.1 0-.2-.1-.2-.3-.1-.1 0-.2.1-.3" mask="url(#b)"/>
    <path fill="#FFF" d="M29.1 21.2c-.08.1-.1.2-.1.3.02.07.06.14.13.2.08.04.16.06.24.04.08-.02.16-.1.23-.2s.1-.2.1-.28c-.02-.08-.06-.15-.14-.2-.07-.06-.15-.07-.24-.05-.08.1-.16.1-.23.2" mask="url(#b)"/>
    <path fill="#329D48" d="M19 16.8l.18-.8.58.12-.03.14-.42-.1v.17l.4.1v.13l-.4-.1v.22l.5.1v.12l-.6-.14" mask="url(#b)"/>
  </g>
</svg>
