<svg xmlns="http://www.w3.org/2000/svg" width="40" height="40" viewBox="0 0 40 40" xmlns:xlink="http://www.w3.org/1999/xlink">
  <defs>
    <path id="a" d="M1 21.542C1.797 31.87 10.433 40 20.97 40 32.033 40 41 31.037 41 19.98 41 9.352 32.715.658 22.247 0h-2.554C9.743.626 1.765 8.51 1 18.418v3.124z"/>
  </defs>
  <g fill="none" fill-rule="evenodd" transform="translate(-1)">
    <mask id="b" fill="#fff">
      <use xlink:href="#a"/>
    </mask>
    <path fill="#E94B37" d="M1 0h40v40H1V0z" mask="url(#b)"/>
    <path fill="#F5DF64" d="M14 21.465L18.944 25l-1.882-5.728L22 15.727h-6.11L14 10l-1.893 5.727H6l4.938 3.545L9.055 25 14 21.465M27.71 10.71l2.29-.555-2.183-.867L27.982 7l-1.52 1.756-2.188-.862 1.246 1.952L24 11.6l2.29-.55L27.544 13l.167-2.29m0 20l2.29-.552-2.18-.867.166-2.29-1.52 1.76-2.188-.864 1.246 1.954L24 31.6l2.29-.547L27.544 33l.167-2.29m6-13.758l2.29.39-1.62-1.657 1.08-2.053-2.082 1.025L31.75 13l.333 2.292L30 16.318l2.29.392.335 2.29 1.086-2.048m-.633 8.588l1.9 1.33-.777-2.24 1.8-1.468-2.29.08L32.93 21l-.64 2.292-2.29.08 1.9 1.34L31.264 27l1.808-1.46" mask="url(#b)"/>
  </g>
</svg>
