<svg xmlns="http://www.w3.org/2000/svg" width="40" height="40" viewBox="0 0 40 40" xmlns:xlink="http://www.w3.org/1999/xlink">
  <defs>
    <path id="a" d="M.06 21.56C.856 31.878 9.48 40 20 40c11.046 0 20-8.954 20-20C40 9.382 31.727.698 21.275.04h-2.55C8.79.665.825 8.543.06 18.44v3.12z"/>
  </defs>
  <g fill="none" fill-rule="evenodd">
    <path fill="#218BDA" d="M40 20c0 11.046-8.954 20-20 20S0 31.046 0 20 8.954 0 20 0s20 8.954 20 20"/>
    <mask id="b" fill="#fff">
      <use xlink:href="#a"/>
    </mask>
    <path fill="#FFF" d="M.06.04h39.96V40H.06V.04z" mask="url(#b)"/>
    <path fill="#218BDA" d="M.06.04h39.96V40H.06V.04z" mask="url(#b)"/>
    <path fill="#FFED00" d="M18.667 8.09l1.32-.963 1.32.964-.502-1.55 1.34-.96h-1.652L19.987 4l-.506 1.58-1.65-.004 1.34.962-.5 1.558M11.84 9.93l1.32-.965 1.32.964-.502-1.56 1.34-.97H13.66l-.506-1.58-.506 1.58h-1.652l1.34.96-.5 1.55m-3.68.91L7.65 12.4H5.998l1.34.965-.502 1.555 1.32-.96 1.32.96-.502-1.555 1.34-.965H8.662l-.506-1.58m-1.834 9.97l1.32.964-.502-1.56 1.34-.968H6.828l-.506-1.58-.506 1.58-1.652-.002 1.34.963-.502 1.56 1.32-.96m2.34 5.29l-.506-1.58-.506 1.58H5.998l1.34.96-.502 1.556 1.32-.963 1.32.963-.502-1.56 1.34-.962H8.662m5.008 5.01l-.505-1.57-.505 1.58h-1.653l1.34.96-.502 1.56 1.32-.96 1.32.967-.502-1.56 1.34-.964H13.67m6.824 1.816l-.506-1.58-.505 1.58H17.83l1.34.966-.502 1.56 1.32-.964 1.32.966-.502-1.56 1.34-.964h-1.652m6.823-1.81l-.504-1.576-.507 1.58h-1.652l1.34.96-.502 1.56 1.32-.964 1.32.96-.503-1.56 1.34-.964h-1.66m5.01-5.006l-.51-1.58-.51 1.58h-1.65l1.34.96-.5 1.56 1.32-.967 1.32.963-.5-1.558 1.34-.964h-1.65m3.46-6.86h-1.65l-.51-1.58-.51 1.584-1.66-.002 1.34.965-.5 1.56 1.32-.96 1.32.964-.5-1.558 1.34-.96m-5.29-4.3l1.32-.96 1.32.963-.504-1.56 1.34-.96h-1.65l-.508-1.58-.51 1.58h-1.65l1.34.96-.504 1.56m-3.67-9.09l-.5 1.58-1.65-.005 1.34.96-.504 1.56 1.324-.962 1.32.965-.5-1.56 1.34-.962h-1.65l-.5-1.58" mask="url(#b)"/>
  </g>
</svg>
