<?xml version="1.0" encoding="UTF-8" standalone="no"?>
<svg width="40px" height="40px" viewBox="0 0 40 40" version="1.1" xmlns="http://www.w3.org/2000/svg" xmlns:xlink="http://www.w3.org/1999/xlink" xmlns:sketch="http://www.bohemiancoding.com/sketch/ns">
    <!-- Generator: Sketch 3.3.3 (12081) - http://www.bohemiancoding.com/sketch -->
    <title>german-flag</title>
    <desc>Created with Sketch.</desc>
    <defs>
        <path id="path-1" d="M1,21.5423613 C1.79747104,31.8691678 10.4333992,40 20.9699549,40 C32.0325488,40 41,31.037037 41,19.97998 C41,9.35173039 32.7146014,0.658300861 22.2471674,0 L19.6927424,0 C9.74312794,0.625735001 1.76500001,8.51127386 1,18.4175986 L1,21.5423613 L1,21.5423613 Z"></path>
    </defs>
    <g id="Page-1" stroke="none" stroke-width="1" fill="none" fill-rule="evenodd" sketch:type="MSPage">
        <g id="Mobile--rates-explained-Copy" sketch:type="MSArtboardGroup" transform="translate(-154.000000, -2119.000000)">
            <g id="german-flag" sketch:type="MSLayerGroup" transform="translate(153.000000, 2119.000000)">
                <mask id="mask-2" sketch:name="Clip 2" fill="white">
                    <use xlink:href="#path-1"></use>
                </mask>
                <g id="Clip-2"></g>
                <path d="M1,0 L41,0 L41,40 L1,40 L1,0 Z" id="Fill-1" fill="#000000" sketch:type="MSShapeGroup" mask="url(#mask-2)"></path>
                <path d="M1,12 L41,12 L41,40 L1,40 L1,12 Z" id="Fill-3" fill="#DD0000" sketch:type="MSShapeGroup" mask="url(#mask-2)"></path>
                <path d="M1,28 L41,28 L41,40 L1,40 L1,28 Z" id="Fill-4" fill="#FFCE00" sketch:type="MSShapeGroup" mask="url(#mask-2)"></path>
            </g>
        </g>
    </g>
</svg>