<svg xmlns="http://www.w3.org/2000/svg" width="40" height="40" viewBox="0 0 40 40" xmlns:xlink="http://www.w3.org/1999/xlink">
  <defs>
    <path id="a" d="M40 20c0 11.046-8.954 20-20 20S0 31.046 0 20 8.954 0 20 0s20 8.954 20 20z"/>
  </defs>
  <g fill="none" fill-rule="evenodd">
    <mask id="b" fill="#fff">
      <use xlink:href="#a"/>
    </mask>
    <path fill="#FFF" d="M9 0h22v40H9V0z" mask="url(#b)"/>
    <path fill="#E94B37" d="M31 0h9v40h-9V0z" mask="url(#b)"/>
    <path fill="#259D51" d="M0 0h9v40H0V0z" mask="url(#b)"/>
    <path fill="#0090C6" d="M19.157 23.673c-.743.155-1.064-.293-1.18-.616-.08.293-.073.453-.37.392-.297-.07-1.21-.38-1.432-.44-.223-.06-.274.08.09.23.362.14.7.3.71.4.006.1-.314.22-.43.26.545 0 1.15.08 1.342.11.365.06.388.25-.206.54 1.51-.13 1.45.42 2.22.42.56-.01 1.18 0 1.44-.01.69-.02.19-.23.85-.36.47-.09.94-.21 1.3-.3-.37-.06-.57-.13-.57-.19s.74-.28 1.1-.39c-.12-.03-.42-.06-.79.01-.37.07-1.02.15-1.8.08-.78-.07-1.64.04-2.24-.19" mask="url(#b)"/>
    <path stroke="#000" stroke-width=".125" d="M19.157 23.673c-.743.155-1.064-.293-1.18-.616-.08.293-.073.453-.37.392-.297-.07-1.21-.38-1.432-.44-.223-.06-.274.08.09.23.362.14.7.3.71.4.006.1-.314.22-.43.26.545 0 1.15.08 1.342.11.365.06.388.25-.206.54 1.51-.13 1.45.42 2.22.42.56-.01 1.18 0 1.44-.01.69-.02.19-.23.85-.36.47-.09.94-.21 1.3-.3-.37-.06-.57-.13-.57-.19s.74-.28 1.1-.39c-.12-.03-.42-.06-.79.01-.37.07-1.02.15-1.8.08-.78-.07-1.64.04-2.24-.19z" mask="url(#b)"/>
    <path fill="#F5B827" d="M20.593 24.83c.096.164.284.132.364-.006.087-.15.03-.325-.065-.4.065-.214.102-.718 0-.908.095-.074.152-.25.065-.397-.08-.14-.268-.18-.364-.01-.553-.14-1.786-.1-2.188 0-.093-.17-.285-.13-.364.01-.08.14-.02.32.07.39-.1.19-.06.69 0 .91-.09.07-.15.25-.06.4.08.14.27.17.37 0 .46.22 1.72.22 2.19 0" mask="url(#b)"/>
    <path stroke="#000" stroke-width=".125" d="M20.593 24.83c.096.164.284.132.364-.006.087-.15.03-.325-.065-.4.065-.214.102-.718 0-.908.095-.074.152-.25.065-.397-.08-.14-.268-.18-.364-.01-.553-.14-1.786-.1-2.188 0-.093-.17-.285-.13-.364.01-.08.14-.02.32.07.39-.1.19-.06.69 0 .91-.09.07-.15.25-.06.4.08.14.27.17.37 0 .46.22 1.72.22 2.19 0zM18 25.02c.136-.078.283.096.165.254L18 25.02zm.165-2.02c.118.158-.03.334-.165.256l.165-.256zm3.045 2.02c-.137-.078-.283.096-.168.254l.168-.255zM21.042 23c-.115.158.03.334.168.256L21.042 23zM18 23c.416-.04.543 2.037 1 2l-1-2zm1 0c.39-.048.564 2.098 1 1.996L19 23zm0 0c.395-.05.61 2.12 1 1.995L19 23z" mask="url(#b)"/>
    <path fill="#FFF" d="M16.235 24c-.313 0-.313.465 0 .465.31 0 .317-.465 0-.465" mask="url(#b)"/>
    <path stroke="#000" stroke-width=".125" d="M16.235 24c-.313 0-.313.465 0 .465.31 0 .317-.465 0-.465z" mask="url(#b)"/>
    <path fill="#FFF" d="M17.233 23c-.31 0-.31.467 0 .467.313 0 .317-.467 0-.467" mask="url(#b)"/>
    <path stroke="#000" stroke-width=".125" d="M17.233 23c-.31 0-.31.467 0 .467.313 0 .317-.467 0-.467z" mask="url(#b)"/>
    <path fill="#FFF" d="M23.233 24c-.31 0-.31.465 0 .465.314 0 .317-.465 0-.465" mask="url(#b)"/>
    <path stroke="#000" stroke-width=".125" d="M23.233 24c-.31 0-.31.465 0 .465.314 0 .317-.465 0-.465z" mask="url(#b)"/>
    <path fill="#745F39" d="M15.504 23.056c-.19-.094-.418-.063-.488.044-.07.11.107.32.295.404.19.086.36.016.41-.06.06-.08 0-.28-.21-.388" mask="url(#b)"/>
    <path stroke="#000" stroke-width=".125" d="M15.504 23.056c-.19-.094-.418-.063-.488.044-.07.11.107.32.295.404.19.086.36.016.41-.06.06-.08 0-.28-.21-.388z" mask="url(#b)"/>
    <path fill="#745F39" d="M17.322 25.032c-.203.064-.344.247-.32.372.027.127.3.153.494.085.192-.07.257-.25.225-.34-.04-.13-.16-.2-.39-.12" mask="url(#b)"/>
    <path stroke="#000" stroke-width=".125" d="M17.322 25.032c-.203.064-.344.247-.32.372.027.127.3.153.494.085.192-.07.257-.25.225-.34-.04-.13-.16-.2-.39-.12z" mask="url(#b)"/>
    <path fill="#745F39" d="M23.4 24.494c.204-.058.43-.266.38-.388-.06-.146-.318-.117-.51-.054-.197.064-.295.223-.265.315.04.132.163.195.396.127" mask="url(#b)"/>
    <path stroke="#000" stroke-width=".125" d="M23.4 24.494c.204-.058.43-.266.38-.388-.06-.146-.318-.117-.51-.054-.197.064-.295.223-.265.315.04.132.163.195.396.127z" mask="url(#b)"/>
    <path fill="#C06E26" d="M24.324 25.618c.017-.078-.06-.317-.14-.38.114-.018.162-.146.06-.213-.08-.05-.184-.016-.22.022-.04.036-.04.166.075.19.01.08.1.358.02.47.15.006.43.08.5.133-.04.093.09.164.15.16.05-.007.15-.06.14-.144-.01-.11-.17-.146-.25-.075-.05-.06-.27-.13-.35-.16" mask="url(#b)"/>
    <path stroke="#000" stroke-width=".125" d="M24.324 25.618c.017-.078-.06-.317-.14-.38.114-.018.162-.146.06-.213-.08-.05-.184-.016-.22.022-.04.036-.04.166.075.19.01.08.1.358.02.47.15.006.43.08.5.133-.04.093.09.164.15.16.05-.007.15-.06.14-.144-.01-.11-.17-.146-.25-.075-.05-.06-.27-.13-.35-.16z" mask="url(#b)"/>
    <path fill="#C06E26" d="M26.432 23.655c-.01-.092-.152-.343-.237-.39.088-.054.083-.214-.02-.257-.08-.032-.152.04-.17.095-.02.054.024.2.123.19.037.085.203.372.177.526.126-.05.37-.05.446-.01 0 .11.13.15.18.13.05-.03.1-.12.07-.21-.04-.12-.18-.11-.22-.01-.06-.06-.26-.07-.33-.08" mask="url(#b)"/>
    <path stroke="#000" stroke-width=".125" d="M26.432 23.655c-.01-.092-.152-.343-.237-.39.088-.054.083-.214-.02-.257-.08-.032-.152.04-.17.095-.02.054.024.2.123.19.037.085.203.372.177.526.126-.05.37-.05.446-.01 0 .11.13.15.18.13.05-.03.1-.12.07-.21-.04-.12-.18-.11-.22-.01-.06-.06-.26-.07-.33-.08z" mask="url(#b)"/>
    <path fill="#C06E26" d="M27.463 21.484c-.042-.076-.187-.24-.254-.265.05-.1-.01-.24-.11-.22-.08.01-.11.11-.1.17 0 .06.09.16.16.1.06.05.22.27.25.42.08-.11.3-.19.38-.2.04.1.15.07.18.02.02-.05.04-.16-.02-.22-.08-.09-.19 0-.18.11-.07-.02-.26.02-.32.06" mask="url(#b)"/>
    <path stroke="#000" stroke-width=".125" d="M27.463 21.484c-.042-.076-.187-.24-.254-.265.05-.1-.01-.24-.11-.22-.08.01-.11.11-.1.17 0 .06.09.16.16.1.06.05.22.27.25.42.08-.11.3-.19.38-.2.04.1.15.07.18.02.02-.05.04-.16-.02-.22-.08-.09-.19 0-.18.11-.07-.02-.26.02-.32.06z" mask="url(#b)"/>
    <path fill="#007844" d="M27.192 20.94c.062-.347.076-.65-.097-.94-.194-.326-.006-.74-.095-.943.12.145.37.486.42.652.094-.22.34-.65.53-.71-.012.12.02.3.044.44.045.22-.176.55-.36.74-.126.13-.31.22-.367.81" mask="url(#b)"/>
    <path stroke="#000" stroke-width=".125" d="M27.192 20.94c.062-.347.076-.65-.097-.94-.194-.326-.006-.74-.095-.943.12.145.37.486.42.652.094-.22.34-.65.53-.71-.012.12.02.3.044.44.045.22-.176.55-.36.74-.126.13-.31.22-.367.81" mask="url(#b)"/>
    <path fill="#007844" d="M27 21c.123-.768-.123-1.694.318-2 .316.427.332.96.13 1.188-.2.226-.417.54-.448.812" mask="url(#b)"/>
    <path stroke="#000" stroke-width=".125" d="M27 21c.123-.768-.123-1.694.318-2 .316.427.332.96.13 1.188-.2.226-.417.54-.448.812z" mask="url(#b)"/>
    <path fill="#007844" d="M26 23.846c.29-.303.51-.514.45-1.08-.077-.75.09-1.63.634-1.766.037.21.066.76.045.977.22-.28.39-.608.87-.647-.36.42-.48 1.445-.91 1.664-.44.22-.79.65-1.01 1.006" mask="url(#b)"/>
    <path stroke="#000" stroke-width=".125" d="M26 23.846c.29-.303.51-.514.45-1.08-.077-.75.09-1.63.634-1.766.037.21.066.76.045.977.22-.28.39-.608.87-.647-.36.42-.48 1.445-.91 1.664-.44.22-.79.65-1.01 1.006" mask="url(#b)"/>
    <path fill="#007844" d="M26 24c.135-.273.226-.418.297-1.058.078-.715.326-1.68.687-1.942.06.52-.05 1.25-.305 1.777-.26.53-.59 1.04-.68 1.223" mask="url(#b)"/>
    <path stroke="#000" stroke-width=".125" d="M26 24c.135-.273.226-.418.297-1.058.078-.715.326-1.68.687-1.942.06.52-.05 1.25-.305 1.777-.26.53-.59 1.04-.68 1.223z" mask="url(#b)"/>
    <path fill="#007844" d="M24.02 24.894c.345-.25.437-.415.515-.675.204-.68.797-.94.818-1.22.065.34.02.72-.073.92.166-.16.495-.31.72-.34-.133.3 0 .7-.51.88-.506.19-.73-.09-1.49.52" mask="url(#b)"/>
    <path stroke="#000" stroke-width=".125" d="M24.02 24.894c.345-.25.437-.415.515-.675.204-.68.797-.94.818-1.22.065.34.02.72-.073.92.166-.16.495-.31.72-.34-.133.3 0 .7-.51.88-.506.19-.73-.09-1.49.52" mask="url(#b)"/>
    <path fill="#007844" d="M24 26c.303-.324.7-.81.917-1.162.216-.35.652-.838 1.083-.838-.184.69-.64 1.273-1.214 1.513-.575.24-.584.335-.786.487" mask="url(#b)"/>
    <path stroke="#000" stroke-width=".125" d="M24 26c.303-.324.7-.81.917-1.162.216-.35.652-.838 1.083-.838-.184.69-.64 1.273-1.214 1.513-.575.24-.584.335-.786.487z" mask="url(#b)"/>
    <path fill="#007844" d="M21 25.608c.502-.08.622-.708 1.63-.594-.148.112-.267.41-.48.513.24.035.598.103.85.23-.28-.036-.914.4-1.443.182-.53-.22-.45-.26-.557-.34" mask="url(#b)"/>
    <path stroke="#000" stroke-width=".125" d="M21 25.608c.502-.08.622-.708 1.63-.594-.148.112-.267.41-.48.513.24.035.598.103.85.23-.28-.036-.914.4-1.443.182-.53-.22-.45-.26-.557-.34z" mask="url(#b)"/>
    <path fill="#007844" d="M21.788 25.756c.478.264 1.78-.097 2.212-.747-.54-.06-1.175.16-1.53.31-.357.15-.68.15-.96.11-.76-.12-1.63-.13-2.495.43-.06.03.076.18.16.12.736-.5 1.744-.71 2.613-.23" mask="url(#b)"/>
    <path stroke="#000" stroke-width=".125" d="M21.788 25.756c.478.264 1.78-.097 2.212-.747-.54-.06-1.175.16-1.53.31-.357.15-.68.15-.96.11-.76-.12-1.63-.13-2.495.43-.06.03.076.18.16.12.736-.5 1.744-.71 2.613-.23z" mask="url(#b)"/>
    <path fill="#C06E26" d="M16.142 25.823c-.016-.204-.04-.35-.092-.457-.055-.108-.086-.357.022-.366.108-.006.187.172.14.318-.047.148 0 .48.102.604" mask="url(#b)"/>
    <path stroke="#000" stroke-width=".125" d="M16.142 25.823c-.016-.204-.04-.35-.092-.457-.055-.108-.086-.357.022-.366.108-.006.187.172.14.318-.047.148 0 .48.102.604" mask="url(#b)"/>
    <path fill="#C06E26" d="M16.15 25.032c-.14-.05-.18.018-.126.13.073.147.264.16.33.054.092-.152.03-.24-.033-.21-.06.032-.13.037-.17.026" mask="url(#b)"/>
    <path stroke="#000" stroke-width=".125" d="M16.15 25.032c-.14-.05-.18.018-.126.13.073.147.264.16.33.054.092-.152.03-.24-.033-.21-.06.032-.13.037-.17.026z" mask="url(#b)"/>
    <path fill="#C06E26" d="M15.81 25c-.2.04-.346.06-.467.036-.117-.023-.365.014-.342.12.03.11.22.134.35.048.13-.084.47-.13.61-.066" mask="url(#b)"/>
    <path stroke="#000" stroke-width=".125" d="M15.81 25c-.2.04-.346.06-.467.036-.117-.023-.365.014-.342.12.03.11.22.134.35.048.13-.084.47-.13.61-.066" mask="url(#b)"/>
    <path fill="#C06E26" d="M16.042 25.164c-.087-.124-.03-.182.09-.16.163.033.23.21.144.304-.12.13-.223.094-.21.027.013-.068-.003-.14-.024-.17" mask="url(#b)"/>
    <path stroke="#000" stroke-width=".125" d="M16.042 25.164c-.087-.124-.03-.182.09-.16.163.033.23.21.144.304-.12.13-.223.094-.21.027.013-.068-.003-.14-.024-.17z" mask="url(#b)"/>
    <path fill="#C06E26" d="M14 23.83c.032-.198.048-.365.022-.484-.03-.117.004-.364.11-.345.107.02.14.21.06.34-.082.14-.102.47-.034.62" mask="url(#b)"/>
    <path stroke="#000" stroke-width=".125" d="M14 23.83c.032-.198.048-.365.022-.484-.03-.117.004-.364.11-.345.107.02.14.21.06.34-.082.14-.102.47-.034.62" mask="url(#b)"/>
    <path fill="#C06E26" d="M14.163 23.04c-.127-.086-.182-.025-.157.095.037.163.216.222.308.134.126-.13.087-.23.02-.22-.068.01-.142 0-.17-.02" mask="url(#b)"/>
    <path stroke="#000" stroke-width=".125" d="M14.163 23.04c-.127-.086-.182-.025-.157.095.037.163.216.222.308.134.126-.13.087-.23.02-.22-.068.01-.142 0-.17-.02z" mask="url(#b)"/>
    <path fill="#C06E26" d="M13.82 23.062c-.2.007-.357.01-.47-.035-.11-.04-.354-.047-.35.06.003.11.184.17.323.11.136-.065.547-.04.677.047" mask="url(#b)"/>
    <path stroke="#000" stroke-width=".125" d="M13.82 23.062c-.2.007-.357.01-.47-.035-.11-.04-.354-.047-.35.06.003.11.184.17.323.11.136-.065.547-.04.677.047" mask="url(#b)"/>
    <path fill="#C06E26" d="M14.027 23.156c-.067-.136 0-.184.117-.14.153.058.188.245.088.322-.142.108-.237.055-.212-.01.025-.064.022-.14.007-.172" mask="url(#b)"/>
    <path stroke="#000" stroke-width=".125" d="M14.027 23.156c-.067-.136 0-.184.117-.14.153.058.188.245.088.322-.142.108-.237.055-.212-.01.025-.064.022-.14.007-.172z" mask="url(#b)"/>
    <path fill="#C06E26" d="M13 20.728c.112-.167.224-.328.246-.447.026-.11.153-.33.243-.27s.04.25-.09.34c-.13.09-.29.4-.34.66" mask="url(#b)"/>
    <path stroke="#000" stroke-width=".125" d="M13 20.728c.112-.167.224-.328.246-.447.026-.11.153-.33.243-.27s.04.25-.09.34c-.13.09-.29.4-.34.66" mask="url(#b)"/>
    <path fill="#C06E26" d="M13.185 21.082c-.082-.127-.156-.097-.18.026-.032.16.108.29.226.243.17-.06.18-.16.11-.18-.07-.01-.13-.05-.15-.08" mask="url(#b)"/>
    <path stroke="#000" stroke-width=".125" d="M13.185 21.082c-.082-.127-.156-.097-.18.026-.032.16.108.29.226.243.17-.06.18-.16.11-.18-.07-.01-.13-.05-.15-.08z" mask="url(#b)"/>
    <path fill="#C06E26" d="M12.746 21.432c-.175-.098-.317-.178-.393-.27-.076-.093-.29-.224-.34-.13-.054.095.077.24.23.258.153.02.5.25.573.393" mask="url(#b)"/>
    <path stroke="#000" stroke-width=".125" d="M12.746 21.432c-.175-.098-.317-.178-.393-.27-.076-.093-.29-.224-.34-.13-.054.095.077.24.23.258.153.02.5.25.573.393" mask="url(#b)"/>
    <path fill="#C06E26" d="M12.11 21.126c.015-.152.097-.158.175-.062.102.128.04.307-.088.323-.175.02-.23-.073-.177-.116.054-.04.087-.1.09-.14" mask="url(#b)"/>
    <path stroke="#000" stroke-width=".125" d="M12.11 21.126c.015-.152.097-.158.175-.062.102.128.04.307-.088.323-.175.02-.23-.073-.177-.116.054-.04.087-.1.09-.14z" mask="url(#b)"/>
    <path fill="#007844" d="M12.833 21.928c-.018-.313-.226-1.05-.133-1.19.097-.14.093-.17.026-.235-.067-.067 0-.198.103-.25.15-.073.21-.236.1-.225-.19.017-.3-.026-.19-.11.13-.1.28-.226.25-.372-.02-.06-.08-.078-.15-.044-.07.033-.14-.02-.06-.095.1-.095.02-.19.1-.257.07-.065.04-.157 0-.15-.05.01-.17.17-.22.095-.05-.075-.11-.153-.17-.006-.08.2.02.34-.03.44-.05.1-.12.13-.18.02-.07-.11-.16-.08-.16.05-.01.13.04.21.1.34.06.12.05.22-.07.14-.12-.08-.18-.08-.19.05-.01.12.04.17.2.26.15.09.18.11.19.22.02.18.16.15.2.39.04.24.15.62.14.98" mask="url(#b)"/>
    <path stroke="#000" stroke-width=".125" d="M12.833 21.928c-.018-.313-.226-1.05-.133-1.19.097-.14.093-.17.026-.235-.067-.067 0-.198.103-.25.15-.073.21-.236.1-.225-.19.017-.3-.026-.19-.11.13-.1.28-.226.25-.372-.02-.06-.08-.078-.15-.044-.07.033-.14-.02-.06-.095.1-.095.02-.19.1-.257.07-.065.04-.157 0-.15-.05.01-.17.17-.22.095-.05-.075-.11-.153-.17-.006-.08.2.02.34-.03.44-.05.1-.12.13-.18.02-.07-.11-.16-.08-.16.05-.01.13.04.21.1.34.06.12.05.22-.07.14-.12-.08-.18-.08-.19.05-.01.12.04.17.2.26.15.09.18.11.19.22.02.18.16.15.2.39.04.24.15.62.14.98" mask="url(#b)"/>
    <path fill="#007844" d="M14 23.9c-.485-.24-.663-.43-.677-.687-.012-.215-.008-.317.072-.403.08-.09.035-.182-.065-.102s-.202.054-.18-.088c.022-.14.086-.322.03-.43-.06-.108-.19-.104-.225.04-.013.062-.065.128-.136.128-.08 0-.07-.146-.04-.242.03-.094-.07-.16-.12-.08s-.17.162-.22.04c-.05-.12-.18-.054-.15.027-.13-.04-.14.05-.1.1.05.072.08.137 0 .12-.08-.018-.24-.07-.21.043.03.11.29.19.45.22.16.03.17.103.1.125-.08.03-.13.02-.24 0-.12-.01-.14.07-.05.16.09.09.33.12.43.13.17.02.19.14.11.14s-.22-.05-.23.02c-.01.07.19.15.34.14.15-.01.17.02.2.06.21.27.59.58.83.66" mask="url(#b)"/>
    <path stroke="#000" stroke-width=".125" d="M14 23.9c-.485-.24-.663-.43-.677-.687-.012-.215-.008-.317.072-.403.08-.09.035-.182-.065-.102s-.202.054-.18-.088c.022-.14.086-.322.03-.43-.06-.108-.19-.104-.225.04-.013.062-.065.128-.136.128-.08 0-.07-.146-.04-.242.03-.094-.07-.16-.12-.08s-.17.162-.22.04c-.05-.12-.18-.054-.15.027-.13-.04-.14.05-.1.1.05.072.08.137 0 .12-.08-.018-.24-.07-.21.043.03.11.29.19.45.22.16.03.17.103.1.125-.08.03-.13.02-.24 0-.12-.01-.14.07-.05.16.09.09.33.12.43.13.17.02.19.14.11.14s-.22-.05-.23.02c-.01.07.19.15.34.14.15-.01.17.02.2.06.21.27.59.58.83.66" mask="url(#b)"/>
    <path fill="#007844" d="M16 24.887c-.41-.14-.666-.565-.678-.79-.012-.226-.06-.165-.088-.114-.03.053-.12.125-.16-.047-.046-.215-.015-.4-.09-.5-.075-.097-.16-.142-.2.04-.042.182-.133.082-.13-.07.002-.15.007-.297-.054-.363-.06-.07-.105-.064-.105.08 0 .145-.056.17-.12.04-.064-.135-.16-.206-.155-.06.006.143.06.27-.05.268-.112 0-.2.02-.108.12.09.1.158.12.22.13.058.02.067.1 0 .13-.063.03-.13.01-.185-.01-.057-.03-.148.01-.06.13s.225.17.398.17c.175 0 .234.09.13.15-.103.07-.18.07-.293.05-.114-.02-.137.09.02.19.16.11.312.09.454.03.142-.05.15.01.126.06-.02.05-.012.12.115.08.126-.04.254-.09.404.03.16.12.33.3.52.41" mask="url(#b)"/>
    <path stroke="#000" stroke-width=".125" d="M16 24.887c-.41-.14-.666-.565-.678-.79-.012-.226-.06-.165-.088-.114-.03.053-.12.125-.16-.047-.046-.215-.015-.4-.09-.5-.075-.097-.16-.142-.2.04-.042.182-.133.082-.13-.07.002-.15.007-.297-.054-.363-.06-.07-.105-.064-.105.08 0 .145-.056.17-.12.04-.064-.135-.16-.206-.155-.06.006.143.06.27-.05.268-.112 0-.2.02-.108.12.09.1.158.12.22.13.058.02.067.1 0 .13-.063.03-.13.01-.185-.01-.057-.03-.148.01-.06.13s.225.17.398.17c.175 0 .234.09.13.15-.103.07-.18.07-.293.05-.114-.02-.137.09.02.19.16.11.312.09.454.03.142-.05.15.01.126.06-.02.05-.012.12.115.08.126-.04.254-.09.404.03.16.12.33.3.52.41" mask="url(#b)"/>
    <path fill="#007844" d="M20.973 25.887c-.73-.448-1.576-.676-2.29-.506-.162.04-.272.09-.368-.05-.097-.14-.146-.08-.185-.04-.04.05-.154.05-.25-.1-.097-.14-.177-.19-.295-.18-.12.01-.157.07-.095.16.06.1.004.17-.097.08-.098-.09-.237-.21-.352-.2-.11.01-.22.02-.15.11.08.1.08.2-.06.11-.13-.08-.22-.13-.35-.11-.18.02-.05.16-.2.2-.09.02-.2.07-.25.12-.04.05-.04.18.31.13.36-.05.38-.03.35.07-.03.1-.03.21.17.17.26-.05.4-.22.49-.14.06.05-.01.12-.06.17-.09.08.12.15.23.07.12-.07.26-.21.34-.18.08.02.01.11-.02.16s0 .16.14.1c.15-.06.24-.42.68-.37.13-.2 1.17-.31 2.02.3.06.05.13.05.21.05.08 0 .2 0 .12-.05" mask="url(#b)"/>
    <path stroke="#000" stroke-width=".125" d="M20.973 25.887c-.73-.448-1.576-.676-2.29-.506-.162.04-.272.09-.368-.05-.097-.14-.146-.08-.185-.04-.04.05-.154.05-.25-.1-.097-.14-.177-.19-.295-.18-.12.01-.157.07-.095.16.06.1.004.17-.097.08-.098-.09-.237-.21-.352-.2-.11.01-.22.02-.15.11.08.1.08.2-.06.11-.13-.08-.22-.13-.35-.11-.18.02-.05.16-.2.2-.09.02-.2.07-.25.12-.04.05-.04.18.31.13.36-.05.38-.03.35.07-.03.1-.03.21.17.17.26-.05.4-.22.49-.14.06.05-.01.12-.06.17-.09.08.12.15.23.07.12-.07.26-.21.34-.18.08.02.01.11-.02.16s0 .16.14.1c.15-.06.24-.42.68-.37.13-.2 1.17-.31 2.02.3.06.05.13.05.21.05.08 0 .2 0 .12-.05z" mask="url(#b)"/>
    <path fill="#0090C6" d="M20.15 26c.195.147.44.28.492.446-.05.038-.1.088-.147.155-.12-.14-.328-.27-.495-.43.04-.04.127-.12.15-.17" mask="url(#b)"/>
    <path stroke="#000" stroke-width=".125" d="M20.15 26c.195.147.44.28.492.446-.05.038-.1.088-.147.155-.12-.14-.328-.27-.495-.43.04-.04.127-.12.15-.17z" mask="url(#b)"/>
    <path fill="#0090C6" d="M19.742 26c-.207.2-.643.292-.742.686.078-.03.176-.05.277-.04.026-.197.477-.424.65-.588-.063-.007-.144-.025-.185-.058" mask="url(#b)"/>
    <path stroke="#000" stroke-width=".125" d="M19.742 26c-.207.2-.643.292-.742.686.078-.03.176-.05.277-.04.026-.197.477-.424.65-.588-.063-.007-.144-.025-.185-.058z" mask="url(#b)"/>
    <path fill="#0090C6" d="M20.26 26.66c-.18-.022-.26-.1-.26-.34 0-.256.04-.31.268-.32.08-.005.07.165.07.314 0 .148.025.365-.08.347" mask="url(#b)"/>
    <path stroke="#000" stroke-width=".125" d="M20.26 26.66c-.18-.022-.26-.1-.26-.34 0-.256.04-.31.268-.32.08-.005.07.165.07.314 0 .148.025.365-.08.347z" mask="url(#b)"/>
    <path fill="#D82331" d="M20.127 26c.203.205.65.296.75.695-.08-.03-.176-.05-.277-.04-.023-.18-.403-.388-.6-.547.005-.016.005-.036.013-.055.028-.006.08-.022.114-.053" mask="url(#b)"/>
    <path stroke="#000" stroke-width=".125" d="M20.127 26c.203.205.65.296.75.695-.08-.03-.176-.05-.277-.04-.023-.18-.403-.388-.6-.547.005-.016.005-.036.013-.055.028-.006.08-.022.114-.053z" mask="url(#b)"/>
    <path fill="#D82331" d="M19.9 26c-.094.398-.545.582-.75.835-.05-.067-.097-.117-.15-.155.074-.242.553-.407.705-.657.054-.004.168-.012.194-.023" mask="url(#b)"/>
    <path stroke="#000" stroke-width=".125" d="M19.9 26c-.094.398-.545.582-.75.835-.05-.067-.097-.117-.15-.155.074-.242.553-.407.705-.657.054-.004.168-.012.194-.023z" mask="url(#b)"/>
    <path fill="#D82331" d="M20 26.67c.234-.01.338-.072.338-.346 0-.28-.045-.317-.33-.324.08-.003.07.168.07.317 0 .148.025.372-.078.352" mask="url(#b)"/>
    <path stroke="#000" stroke-width=".125" d="M20 26.67c.234-.01.338-.072.338-.346 0-.28-.045-.317-.33-.324.08-.003.07.168.07.317 0 .148.025.372-.078.352z" mask="url(#b)"/>
    <path fill="#FFF" d="M19.9 26.01c-.15.25-.632.414-.706.656-.063-.045-.13-.07-.194-.077.026-.2.478-.43.65-.59.052.01.214.01.25.01" mask="url(#b)"/>
    <path stroke="#000" stroke-width=".125" d="M19.9 26.01c-.15.25-.632.414-.706.656-.063-.045-.13-.07-.194-.077.026-.2.478-.43.65-.59.052.01.214.01.25.01z" mask="url(#b)"/>
    <path fill="#FFF" d="M20 26.18c.196.146.442.28.493.445.066-.045.13-.07.196-.077-.03-.18-.41-.39-.6-.548-.02.044-.07.152-.09.18" mask="url(#b)"/>
    <path stroke="#000" stroke-width=".125" d="M20 26.18c.196.146.442.28.493.445.066-.045.13-.07.196-.077-.03-.18-.41-.39-.6-.548-.02.044-.07.152-.09.18z" mask="url(#b)"/>
    <path fill="#FFF" d="M20.315 26.67c.103.02.078-.205.078-.353 0-.15.01-.32-.07-.317h-.126c-.074 0-.136 0-.188.003.08-.005.07.165.07.314 0 .148.02.365-.08.347.05.005.12.01.19.01.04 0 .08 0 .12-.005" mask="url(#b)"/>
    <path stroke="#000" stroke-width=".125" d="M20.315 26.67c.103.02.078-.205.078-.353 0-.15.01-.32-.07-.317h-.126c-.074 0-.136 0-.188.003.08-.005.07.165.07.314 0 .148.02.365-.08.347.05.005.12.01.19.01.04 0 .08 0 .12-.005z" mask="url(#b)"/>
    <path fill="#D82331" d="M14.625 20.71c-.133.132-.387-.006-.494-.115-.1-.11-.22-.3 0-.51.17-.166.38-.07.51.14.13.206.11.37-.01.486" mask="url(#b)"/>
    <path stroke="#000" stroke-width=".125" d="M14.625 20.71c-.133.132-.387-.006-.494-.115-.1-.11-.22-.3 0-.51.17-.166.38-.07.51.14.13.206.11.37-.01.486z" mask="url(#b)"/>
    <path fill="#D82331" d="M14.11 20.304c-.136-.104-.136-.174-.054-.254.082-.076.153-.066.238.032.108.125.118.22.07.27-.05.05-.125.055-.255-.048" mask="url(#b)"/>
    <path stroke="#000" stroke-width=".125" d="M14.11 20.304c-.136-.104-.136-.174-.054-.254.082-.076.153-.066.238.032.108.125.118.22.07.27-.05.05-.125.055-.255-.048z" mask="url(#b)"/>
    <path fill="#D82331" d="M14.13 20.228c-.128-.036-.15-.087-.114-.167.034-.08.085-.07.177-.02.118.06.155.1.136.15-.03.05-.08.08-.2.05" mask="url(#b)"/>
    <path stroke="#000" stroke-width=".125" d="M14.13 20.228c-.128-.036-.15-.087-.114-.167.034-.08.085-.07.177-.02.118.06.155.1.136.15-.03.05-.08.08-.2.05z" mask="url(#b)"/>
    <path fill="#D82331" d="M15 19.21c0-.17.033-.22.165-.21.113.01.144.084.12.21-.03.163-.06.234-.16.23-.07-.003-.125-.06-.125-.23" mask="url(#b)"/>
    <path stroke="#000" stroke-width=".125" d="M15 19.21c0-.17.033-.22.165-.21.113.01.144.084.12.21-.03.163-.06.234-.16.23-.07-.003-.125-.06-.125-.23z" mask="url(#b)"/>
    <path fill="#D82331" d="M14.083 19l.19.33-.082.046-.19-.33.09-.046" mask="url(#b)"/>
    <path stroke="#000" stroke-width=".125" d="M14.083 19l.19.33-.082.046-.19-.33.09-.046z" mask="url(#b)"/>
    <path fill="#D82331" d="M14.127 19c-.17 0-.17.268 0 .268.165 0 .175-.268 0-.268" mask="url(#b)"/>
    <path stroke="#000" stroke-width=".125" d="M14.127 19c-.17 0-.17.268 0 .268.165 0 .175-.268 0-.268z" mask="url(#b)"/>
    <path fill="#D82331" d="M14.072 19.323c-.108-.155-.088-.23.015-.292.106-.06.185-.02.244.11.08.17.05.28-.01.32-.06.04-.14.03-.24-.12" mask="url(#b)"/>
    <path stroke="#000" stroke-width=".125" d="M14.072 19.323c-.108-.155-.088-.23.015-.292.106-.06.185-.02.244.11.08.17.05.28-.01.32-.06.04-.14.03-.24-.12zm.096 1.756L14 21l.168.08zM15 20l.025.233L15 20zm1 .184l.173-.184-.173.184zm-1 .95l.343-.134-.343.135zm-1-.072l.284-.062-.284.062zm.28-.062l-.28.008.28-.008zm1.814.155L16 21l.094.155zm-.094.9l.24-.055-.24.054zm0 .077l.17-.132-.17.132zm0 .04l.17-.172-.17.17zm2 .014l.194-.186-.194.186zm0 1.038l.217-.224-.217.224zm.31-2.067L18 21l.31.157zM18 21l.178.297L18 21zm0 0l.11.293L18 21zm1 0l.03.28L19 21zm.007 0l-.007.285.007-.285zM19 22.178l.077-.178-.077.178zm.07-.178l-.07.264.07-.264zM22 23c.008.076.07.194.117.24L22 23zm1-.698c-.007-.054.024-.242.055-.302l-.054.302zm0-1.023l.123-.28-.123.28zM23 23l.27.118L23 23zm0 0l.258.045L23 23zm1-.96l.308-.04-.308.04zM21 23l.285.17L21 23zm0 0l.35.087L21 23z" mask="url(#b)"/>
    <path fill="#007844" d="M16.64 22c-.88-.04-1.587-.56-1.636-1.177-.053-.616.458-.988.928-.75.81.403.604 1.347 1.068 1.426l-.36.5" mask="url(#b)"/>
    <path stroke="#000" stroke-width=".125" d="M16.64 22c-.88-.04-1.587-.56-1.636-1.177-.053-.616.458-.988.928-.75.81.403.604 1.347 1.068 1.426l-.36.5z" mask="url(#b)"/>
    <path fill="#007844" d="M18 21.598c-.355-.275-1.135-.787-1.65-.526-.515.263-.35.57-.207.705.208.19 1.135.31 1.785.143l.072-.322" mask="url(#b)"/>
    <path stroke="#000" stroke-width=".125" d="M18 21.598c-.355-.275-1.135-.787-1.65-.526-.515.263-.35.57-.207.705.208.19 1.135.31 1.785.143l.072-.322z" mask="url(#b)"/>
    <path fill="#007844" d="M20.978 22.435c-1.15-.305-1.937-.59-2.576-.34-.642.252-.41.625-.034.8.378.175 1.542.098 2.052.01.508-.087.64-.25.558-.47" mask="url(#b)"/>
    <path stroke="#000" stroke-width=".125" d="M20.978 22.435c-1.15-.305-1.937-.59-2.576-.34-.642.252-.41.625-.034.8.378.175 1.542.098 2.052.01.508-.087.64-.25.558-.47z" mask="url(#b)"/>
    <path fill="#007844" d="M22.342 22.522c.482.016.46-.115.59-.27.14-.164.515-.374.806-.164.316.23.38.537 0 .725-.38.188-.64.24-1.034.13-.394-.108-.622-.176-.704-.188.196-.067.29-.146.342-.233" mask="url(#b)"/>
    <path stroke="#000" stroke-width=".125" d="M22.342 22.522c.482.016.46-.115.59-.27.14-.164.515-.374.806-.164.316.23.38.537 0 .725-.38.188-.64.24-1.034.13-.394-.108-.622-.176-.704-.188.196-.067.29-.146.342-.233z" mask="url(#b)"/>
    <path fill="#007844" d="M20.684 23.907c.036-1.114 1.413-.442 1.31-1.526-.043-.48-.768-.42-1.35-.25-.58.17-.62.93-.644 1.82 0 .06.113.06.34.06.23 0 .348.02.344-.09" mask="url(#b)"/>
    <path stroke="#000" stroke-width=".125" d="M20.684 23.907c.036-1.114 1.413-.442 1.31-1.526-.043-.48-.768-.42-1.35-.25-.58.17-.62.93-.644 1.82 0 .06.113.06.34.06.23 0 .348.02.344-.09z" mask="url(#b)"/>
    <path fill="#D82331" d="M24.232 22.096c-.216.134-.27.294-.21.418.064.124.327.093.5-.008.167-.098.27-.302.193-.427-.08-.13-.304-.1-.483.01" mask="url(#b)"/>
    <path stroke="#000" stroke-width=".125" d="M24.232 22.096c-.216.134-.27.294-.21.418.064.124.327.093.5-.008.167-.098.27-.302.193-.427-.08-.13-.304-.1-.483.01z" mask="url(#b)"/>
    <path fill="#D82331" d="M25.33 22.067l-.263.273-.067-.065.264-.275.066.067" mask="url(#b)"/>
    <path stroke="#000" stroke-width=".125" d="M25.33 22.067l-.263.273-.067-.065.264-.275.066.067z" mask="url(#b)"/>
    <path fill="#D82331" d="M25.26 21.09c-.048-.16-.3-.088-.254.074.044.158.302.096.254-.073" mask="url(#b)"/>
    <path stroke="#000" stroke-width=".125" d="M25.26 21.09c-.048-.16-.3-.088-.254.074.044.158.302.096.254-.073z" mask="url(#b)"/>
    <path fill="#D82331" d="M25.053 22.16c.088-.15.143-.2.256-.128.09.06.07.152-.01.254-.1.13-.16.18-.25.134-.06-.036-.1-.12-.01-.26" mask="url(#b)"/>
    <path stroke="#000" stroke-width=".125" d="M25.053 22.16c.088-.15.143-.2.256-.128.09.06.07.152-.01.254-.1.13-.16.18-.25.134-.06-.036-.1-.12-.01-.26z" mask="url(#b)"/>
    <path fill="#D82331" d="M25.198 22.012c.17-.027.243-.02.26.113.017.114-.067.157-.196.162-.166.007-.24-.007-.26-.103-.014-.07.03-.146.196-.172" mask="url(#b)"/>
    <path stroke="#000" stroke-width=".125" d="M25.198 22.012c.17-.027.243-.02.26.113.017.114-.067.157-.196.162-.166.007-.24-.007-.26-.103-.014-.07.03-.146.196-.172z" mask="url(#b)"/>
    <path fill="#D82331" d="M25.115 22.1c.134-.133.21-.127.286-.02.07.092.04.185-.1.237-.15.058-.22.1-.27.025-.04-.056-.02-.125.1-.242" mask="url(#b)"/>
    <path stroke="#000" stroke-width=".125" d="M25.115 22.1c.134-.133.21-.127.286-.02.07.092.04.185-.1.237-.15.058-.22.1-.27.025-.04-.056-.02-.125.1-.242z" mask="url(#b)"/>
    <path fill="#508A32" d="M15.083 21.02c-.15.078-.08.22.072.145.15-.075.08-.22-.072-.144z" mask="url(#b)"/>
    <path stroke="#A5BF57" stroke-width=".063" d="M15.083 21.02c-.15.078-.08.22.072.145.15-.075.08-.22-.072-.144z" mask="url(#b)"/>
    <path fill="#508A32" d="M15.1 21.008c-.16.046-.117.2.045.153.16-.04.12-.19-.045-.15z" mask="url(#b)"/>
    <path stroke="#A5BF57" stroke-width=".063" d="M15.1 21.008c-.16.046-.117.2.045.153.16-.04.12-.19-.045-.15z" mask="url(#b)"/>
    <path fill="#508A32" d="M15.002 21.115c-.02.167.138.188.16.022.022-.167-.136-.19-.16-.022z" mask="url(#b)"/>
    <path stroke="#A5BF57" stroke-width=".063" d="M15.002 21.115c-.02.167.138.188.16.022.022-.167-.136-.19-.16-.022z" mask="url(#b)"/>
    <path fill="#508A32" d="M15.038 21.06c-.09.113 0 .186.09.072.09-.115 0-.19-.09-.073z" mask="url(#b)"/>
    <path stroke="#A5BF57" stroke-width=".063" d="M15.038 21.06c-.09.113 0 .186.09.072.09-.115 0-.19-.09-.073z" mask="url(#b)"/>
    <path fill="#508A32" d="M16.11 21.004c-.166.03-.135.19.03.157.165-.03.136-.18-.03-.15z" mask="url(#b)"/>
    <path stroke="#A5BF57" stroke-width=".063" d="M16.11 21.004c-.166.03-.135.19.03.157.165-.03.136-.18-.03-.15z" mask="url(#b)"/>
    <path fill="#508A32" d="M16.047 21.053c-.105.12-.015.224.09.104.103-.12.015-.225-.09-.104z" mask="url(#b)"/>
    <path stroke="#A5BF57" stroke-width=".063" d="M16.047 21.053c-.105.12-.015.224.09.104.103-.12.015-.225-.09-.104z" mask="url(#b)"/>
    <path fill="#508A32" d="M15.026 21.077c-.084.145.052.225.138.082.084-.15-.052-.23-.138-.09z" mask="url(#b)"/>
    <path stroke="#A5BF57" stroke-width=".063" d="M15.026 21.077c-.084.145.052.225.138.082.084-.15-.052-.23-.138-.09z" mask="url(#b)"/>
    <path fill="#508A32" d="M16.026 22.076c-.084.146.053.225.138.083.085-.15-.05-.23-.138-.09z" mask="url(#b)"/>
    <path stroke="#A5BF57" stroke-width=".063" d="M16.026 22.076c-.084.146.053.225.138.083.085-.15-.05-.23-.138-.09z" mask="url(#b)"/>
    <path fill="#508A32" d="M17.042 21.06c-.107.127.013.23.12.1.108-.125-.01-.23-.12-.1z" mask="url(#b)"/>
    <path stroke="#A5BF57" stroke-width=".063" d="M17.042 21.06c-.107.127.013.23.12.1.108-.125-.01-.23-.12-.1z" mask="url(#b)"/>
    <path fill="#508A32" d="M17 22.125c0 .168.158.17.16.003.003-.168-.157-.17-.16-.003z" mask="url(#b)"/>
    <path stroke="#A5BF57" stroke-width=".063" d="M17 22.125c0 .168.158.17.16.003.003-.168-.157-.17-.16-.003z" mask="url(#b)"/>
    <path fill="#508A32" d="M17.012 22.097c-.055.156.095.21.152.05.055-.155-.095-.212-.152-.05z" mask="url(#b)"/>
    <path stroke="#A5BF57" stroke-width=".063" d="M17.012 22.097c-.055.156.095.21.152.05.055-.155-.095-.212-.152-.05z" mask="url(#b)"/>
    <path fill="#508A32" d="M17.013 22.096c-.057.158.095.212.148.053.06-.16-.09-.22-.14-.06z" mask="url(#b)"/>
    <path stroke="#A5BF57" stroke-width=".063" d="M17.013 22.096c-.057.158.095.212.148.053.06-.16-.09-.22-.14-.06z" mask="url(#b)"/>
    <path fill="#508A32" d="M17 22.125c0 .168.158.168.16.004.003-.17-.158-.18-.16-.01z" mask="url(#b)"/>
    <path stroke="#A5BF57" stroke-width=".063" d="M17 22.125c0 .168.158.168.16.004.003-.17-.158-.18-.16-.01z" mask="url(#b)"/>
    <path fill="#508A32" d="M18.028 22.077c-.087.146.05.225.134.082.087-.15-.05-.23-.134-.09z" mask="url(#b)"/>
    <path stroke="#A5BF57" stroke-width=".063" d="M18.028 22.077c-.087.146.05.225.134.082.087-.15-.05-.23-.134-.09z" mask="url(#b)"/>
    <path fill="#508A32" d="M19.008 23.146c.043.162.197.12.153-.04-.04-.164-.19-.126-.15.04z" mask="url(#b)"/>
    <path stroke="#A5BF57" stroke-width=".063" d="M19.008 23.146c.043.162.197.12.153-.04-.04-.164-.19-.126-.15.04z" mask="url(#b)"/>
    <path fill="#508A32" d="M19.026 22.076c-.083.145.055.225.14.083.083-.15-.054-.23-.14-.09z" mask="url(#b)"/>
    <path stroke="#A5BF57" stroke-width=".063" d="M19.026 22.076c-.083.145.055.225.14.083.083-.15-.054-.23-.14-.09z" mask="url(#b)"/>
    <path fill="#508A32" d="M19.044 22.057c-.11.124.008.23.117.105.12-.123 0-.232-.11-.105z" mask="url(#b)"/>
    <path stroke="#A5BF57" stroke-width=".063" d="M19.044 22.057c-.11.124.008.23.117.105.12-.123 0-.232-.11-.105z" mask="url(#b)"/>
    <path fill="#508A32" d="M19.044 22.056c-.11.125.007.23.12.108.11-.123-.006-.235-.12-.108z" mask="url(#b)"/>
    <path stroke="#A5BF57" stroke-width=".063" d="M19.044 22.056c-.11.125.007.23.12.108.11-.123-.006-.235-.12-.108z" mask="url(#b)"/>
    <path fill="#508A32" d="M19.02 23.152c.07.152.216.084.146-.066-.07-.15-.217-.088-.147.066z" mask="url(#b)"/>
    <path stroke="#A5BF57" stroke-width=".063" d="M19.02 23.152c.07.152.216.084.146-.066-.07-.15-.217-.088-.147.066z" mask="url(#b)"/>
    <path fill="#508A32" d="M20.013 22.094c-.058.157.092.212.15.055.06-.16-.09-.22-.15-.06z" mask="url(#b)"/>
    <path stroke="#A5BF57" stroke-width=".063" d="M20.013 22.094c-.058.157.092.212.15.055.06-.16-.09-.22-.15-.06z" mask="url(#b)"/>
    <path fill="#508A32" d="M21.173 23.023c-.145-.082-.247.08-.103.162.146.082.25-.077.103-.162z" mask="url(#b)"/>
    <path stroke="#A5BF57" stroke-width=".063" d="M21.173 23.023c-.145-.082-.247.08-.103.162.146.082.25-.077.103-.162z" mask="url(#b)"/>
    <path fill="#508A32" d="M20.174 23.024c-.147-.085-.25.076-.105.162.14.082.25-.08.1-.162z" mask="url(#b)"/>
    <path stroke="#A5BF57" stroke-width=".063" d="M20.174 23.024c-.147-.085-.25.076-.105.162.14.082.25-.08.1-.162z" mask="url(#b)"/>
    <path fill="#508A32" d="M21.192 23.023c-.147-.085-.274.092-.127.176.145.08.272-.1.127-.18z" mask="url(#b)"/>
    <path stroke="#A5BF57" stroke-width=".063" d="M21.192 23.023c-.147-.085-.274.092-.127.176.145.08.272-.1.127-.18z" mask="url(#b)"/>
    <path fill="#508A32" d="M21.148 22.01c-.16-.053-.21.098-.05.152.157.053.212-.095.05-.15z" mask="url(#b)"/>
    <path stroke="#A5BF57" stroke-width=".063" d="M21.148 22.01c-.16-.053-.21.098-.05.152.157.053.212-.095.05-.15z" mask="url(#b)"/>
    <path fill="#508A32" d="M21.115 23.013c-.123-.062-.164.11-.038.17.124.06.165-.11.038-.17z" mask="url(#b)"/>
    <path stroke="#A5BF57" stroke-width=".063" d="M21.115 23.013c-.123-.062-.164.11-.038.17.124.06.165-.11.038-.17z" mask="url(#b)"/>
    <path fill="#508A32" d="M22.148 23.01c-.16-.052-.21.1-.05.154.158.054.212-.097.05-.153z" mask="url(#b)"/>
    <path stroke="#A5BF57" stroke-width=".063" d="M22.148 23.01c-.16-.052-.21.1-.05.154.158.054.212-.097.05-.153z" mask="url(#b)"/>
    <path fill="#508A32" d="M22.16 22.01c-.16-.054-.23.115-.07.168.16.054.228-.115.07-.167z" mask="url(#b)"/>
    <path stroke="#A5BF57" stroke-width=".063" d="M22.16 22.01c-.16-.054-.23.115-.07.168.16.054.228-.115.07-.167z" mask="url(#b)"/>
    <path fill="#508A32" d="M23.164 23.057c-.11-.126-.232-.022-.12.105.11.127.232.022.12-.105z" mask="url(#b)"/>
    <path stroke="#A5BF57" stroke-width=".063" d="M23.164 23.057c-.11-.126-.232-.022-.12.105.11.127.232.022.12-.105z" mask="url(#b)"/>
    <path fill="#508A32" d="M23.168 23.025c-.143-.088-.24.077-.1.165.142.09.242-.074.1-.165z" mask="url(#b)"/>
    <path stroke="#A5BF57" stroke-width=".063" d="M23.168 23.025c-.143-.088-.24.077-.1.165.142.09.242-.074.1-.165z" mask="url(#b)"/>
    <path fill="#508A32" d="M24.168 23.026c-.142-.09-.24.076-.1.165.145.09.243-.07.1-.16z" mask="url(#b)"/>
    <path stroke="#A5BF57" stroke-width=".063" d="M24.168 23.026c-.142-.09-.24.076-.1.165.145.09.243-.07.1-.16z" mask="url(#b)"/>
    <path fill="#508A32" d="M23.18 22.024c-.143-.088-.258.086-.114.173.143.088.256-.083.113-.173z" mask="url(#b)"/>
    <path stroke="#A5BF57" stroke-width=".063" d="M23.18 22.024c-.143-.088-.258.086-.114.173.143.088.256-.083.113-.173z" mask="url(#b)"/>
    <path fill="#508A32" d="M24.178 22.025c-.14-.09-.254.086-.113.174.14.08.26-.09.113-.18z" mask="url(#b)"/>
    <path stroke="#A5BF57" stroke-width=".063" d="M24.178 22.025c-.14-.09-.254.086-.113.174.14.08.26-.09.113-.18z" mask="url(#b)"/>
    <path fill="#D82331" d="M17.228 21c-.227.156-.29.463-.164.657.127.192.345.137.464 0 .12-.14.1-.472.03-.59l-.33-.067" mask="url(#b)"/>
    <path stroke="#000" stroke-width=".125" d="M17.228 21c-.227.156-.29.463-.164.657.127.192.345.137.464 0 .12-.14.1-.472.03-.59l-.33-.067z" mask="url(#b)"/>
    <path fill="#D82331" d="M17.125 21c-.164 0-.168.265 0 .265.166 0 .178-.265 0-.265" mask="url(#b)"/>
    <path stroke="#000" stroke-width=".125" d="M17.125 21c-.164 0-.168.265 0 .265.166 0 .178-.265 0-.265z" mask="url(#b)"/>
    <path fill="#D82331" d="M17.134 21c-.176 0-.18.278 0 .278.172 0 .186-.278 0-.278" mask="url(#b)"/>
    <path stroke="#000" stroke-width=".125" d="M17.134 21c-.176 0-.18.278 0 .278.172 0 .186-.278 0-.278z" mask="url(#b)"/>
    <path fill="#D82331" d="M17.134 21c-.178 0-.178.28 0 .28.174 0 .183-.28 0-.28" mask="url(#b)"/>
    <path stroke="#000" stroke-width=".125" d="M17.134 21c-.178 0-.178.28 0 .28.174 0 .183-.28 0-.28z" mask="url(#b)"/>
    <path fill="#D82331" d="M17 21.178c.086.13.34.05.344-.178-.054.022-.217.07-.308.015l-.036.163" mask="url(#b)"/>
    <path stroke="#000" stroke-width=".125" d="M17 21.178c.086.13.34.05.344-.178-.054.022-.217.07-.308.015l-.036.163z" mask="url(#b)"/>
    <path fill="#D82331" d="M17.285 21.172c-.096-.016-.197-.06-.223-.172-.156.156.007.418.23.322l-.007-.15" mask="url(#b)"/>
    <path stroke="#000" stroke-width=".125" d="M17.285 21.172c-.096-.016-.197-.06-.223-.172-.156.156.007.418.23.322l-.007-.15z" mask="url(#b)"/>
    <path fill="#D82331" d="M17.093 21.315c-.1-.03-.1-.174-.086-.237.03-.147.33-.07.29.1-.03.126-.113.167-.204.137" mask="url(#b)"/>
    <path stroke="#000" stroke-width=".125" d="M17.093 20.315c-.1-.03-.1-.174-.086-.237.03-.147.33-.07.29.1-.03.126-.113.167-.204.137zm-1.906.786L15 21l.187.1zM15 20l.14.193L15 20zm1 0l.017.23L16 20zm-.857.127L15 20l.143.127zm.05.99L15 21l.193.117zm.978.036L16 21l.17.153zm-.11-.927L16 20l.055.226zm-1.04-.01L15 20l.015.217zm1.18.88L16 21l.193.095zM17 21l.133.123L17 21zm0 1.023l.153-.023-.153.023zm.21.054L17 22l.21.077zM17 22l.18.006L17 22zm.178-.852L17 21l.178.148zM18 22l.247.022L18 22zm-.768 0H17h.232zM18 22l.21.022L18 22zm.18.14L18 22l.18.14zM19 21l.178.07L19 21zm0 0l.17.09L19 21zm0 1l.208.06L19 22zm.148.148L19 22l.148.148zM20 22l.248.054L20 22zm-1 .06l.202-.06-.202.06zm1.022.166L20 22l.022.226zM21 23.24V23v.24zm.208-.24l-.208.124.208-.124zM21 22.225l.022-.225-.022.225zm0-.086l.264-.14-.264.14zm1-.04l.16-.1-.16.1zm0 .06l.14-.17-.14.16zm0 .03l.15-.2-.15.19zm1-.03l.14-.17-.14.16zm.062-.17l-.062.24.062-.24zm-.062.14l.156-.14-.156.13zm1 .02l.172-.16-.172.15zm0 0l.14-.16-.14.16zm0 .08l.085-.25-.085.24z" mask="url(#b)"/>
    <path fill="#9C5925" d="M17.08 15.316c-.136-.1-.105-.233.138-.417.187-.14.393-.39.387-.55-.01-.19.043-.2.09-.02.04.14.045.27.018.36.108-.16.153-.47.148-.59 0-.12.08-.24.12-.04.04.2.04.28.02.36.07-.03.13-.06.19-.1.04-.13.06-.26.07-.35.01-.21.07-.31.1-.14.02.1.03.23.03.36.08-.06.15-.13.19-.22.07-.16.11-.31.15-.01.01.04.01.1 0 .18.32-.2.77.18 1.01.13.24-.06.22 0 .14.07-.03.02-.08.06-.14.09.28.08.45.31.59.55.12-.51-.23-.88-.55-.92-.32-.04-.7-.09-.5-.49.1-.21.21-.37.59-.38.07-.18.3-.27.79-.23.63.04 1.26.17 1.81.49.55.31.89.49 1.19.35-.02.11-.08.21-.14.3.93.61 1.65 1.44 1.89 2.26.14.46.25.94.63 1.01-.05.05-.13.08-.21.09.15.52.13 1.4.01 1.87-.12.47 0 1.3-.16 1.87-.14.52-.18.17-.18-.07 0-.66-.13-.87-.13-2.26 0-.19-.1-.36-.2-.52-.07.87.26 1.39.06 2.633-.06.36-.16.05-.18-.5-.026-.54-.19-.85-.256-1.35-.02-.18-.08-.34-.15-.48.006.53.19 1.53.134 2.06-.04.37-.15.07-.15-.12 0-.56-.23-.865-.29-1.37-.02-.14-.11-.35-.26-.584.095.396.15.865.16 1.09.01.226-.024.34-.11.19-.08-.14-.17-.415-.2-.76-.03-.344-.26-.52-.44-.71.12.26.26.67.32.94.05.245-.02.29-.06.19-.05-.09-.19-.36-.27-.606-.08-.25-.26-.475-.47-.56-.203-.09-.212-.083-.44-.33.23.27.48.64.61.92s.09.33-.03.215c-.12-.11-.16-.18-.28-.38-.243-.423-.29-.33-.44-.37-.155-.04-.31-.1-.515-.37-.03.045-.08.085-.15.104.21.39.31.803.33 1.194.536.41 1.84 1.3 2.634 1.87.37.27.07.39-.21.4-.21.01-.3.01-.38-.05-.053.19-.414.34-.634.16-.1.16-.36.22-.57.01-.13.13-.29.1-.41-.01-.11-.11-.18-.16-.51-.495.02.415-.12.18-.17.03-.03.45-.12.36-.21.21-.07.36-.22.38-.32.215l-.14-.23c-.07.43-.21.31-.28.16-.07-.14-.16-.27-.34-.54-.07.08-.16-.05-.33-.31-.04-.06-.09-.126-.147-.2-.05.56-.2.51-.33.33-.15.07-.42.208-.68.23-.28.027-.29-.1-.19-.252-.35-.05-.66-.13-.67-.26-.01-.14.44-.41.705-.59-.236-.2-.337-.42-.3-.46.055-.056.23.01.39.096-.22-.27-.495-.76-.435-.92l-.16-.18c-.09.064-.22.084-.19-.08.03-.18-.2-.566-.22-.87-.01-.3.19-.45.28-.754-.07-.017-.09-.07-.07-.15.03-.146.26-.35.337-.586-.1.01-.12 0-.05-.09.07-.1.13-.258.15-.39-.06.034-.08.014-.08-.04 0-.1-.055-.13-.12-.147-.14-.04-1.082-.09-1.33-.27" mask="url(#b)"/>
    <path stroke="#000" stroke-width=".125" d="M17.08 15.316c-.136-.1-.105-.233.138-.417.187-.14.393-.39.387-.55-.01-.19.043-.2.09-.02.04.14.045.27.018.36.108-.16.153-.47.148-.59 0-.12.08-.24.12-.04.04.2.04.28.02.36.07-.03.13-.06.19-.1.04-.13.06-.26.07-.35.01-.21.07-.31.1-.14.02.1.03.23.03.36.08-.06.15-.13.19-.22.07-.16.11-.31.15-.01.01.04.01.1 0 .18.32-.2.77.18 1.01.13.24-.06.22 0 .14.07-.03.02-.08.06-.14.09.28.08.45.31.59.55.12-.51-.23-.88-.55-.92-.32-.04-.7-.09-.5-.49.1-.21.21-.37.59-.38.07-.18.3-.27.79-.23.63.04 1.26.17 1.81.49.55.31.89.49 1.19.35-.02.11-.08.21-.14.3.93.61 1.65 1.44 1.89 2.26.14.46.25.94.63 1.01-.05.05-.13.08-.21.09.15.52.13 1.4.01 1.87-.12.47 0 1.3-.16 1.87-.14.52-.18.17-.18-.07 0-.66-.13-.87-.13-2.26 0-.19-.1-.36-.2-.52-.07.87.26 1.39.06 2.633-.06.36-.16.05-.18-.5-.026-.54-.19-.85-.256-1.35-.02-.18-.08-.34-.15-.48.006.53.19 1.53.134 2.06-.04.37-.15.07-.15-.12 0-.56-.23-.865-.29-1.37-.02-.14-.11-.35-.26-.584.095.396.15.865.16 1.09.01.226-.024.34-.11.19-.08-.14-.17-.415-.2-.76-.03-.344-.26-.52-.44-.71.12.26.26.67.32.94.05.245-.02.29-.06.19-.05-.09-.19-.36-.27-.606-.08-.25-.26-.475-.47-.56-.203-.09-.212-.083-.44-.33.23.27.48.64.61.92s.09.33-.03.215c-.12-.11-.16-.18-.28-.38-.243-.423-.29-.33-.44-.37-.155-.04-.31-.1-.515-.37-.03.045-.08.085-.15.104.21.39.31.803.33 1.194.536.41 1.84 1.3 2.634 1.87.37.27.07.39-.21.4-.21.01-.3.01-.38-.05-.053.19-.414.34-.634.16-.1.16-.36.22-.57.01-.13.13-.29.1-.41-.01-.11-.11-.18-.16-.51-.495.02.415-.12.18-.17.03-.03.45-.12.36-.21.21-.07.36-.22.38-.32.215l-.14-.23c-.07.43-.21.31-.28.16-.07-.14-.16-.27-.34-.54-.07.08-.16-.05-.33-.31-.04-.06-.09-.126-.147-.2-.05.56-.2.51-.33.33-.15.07-.42.208-.68.23-.28.027-.29-.1-.19-.252-.35-.05-.66-.13-.67-.26-.01-.14.44-.41.705-.59-.236-.2-.337-.42-.3-.46.055-.056.23.01.39.096-.22-.27-.495-.76-.435-.92l-.16-.18c-.09.064-.22.084-.19-.08.03-.18-.2-.566-.22-.87-.01-.3.19-.45.28-.754-.07-.017-.09-.07-.07-.15.03-.146.26-.35.337-.586-.1.01-.12 0-.05-.09.07-.1.13-.258.15-.39-.06.034-.08.014-.08-.04 0-.1-.055-.13-.12-.147-.14-.04-1.082-.09-1.33-.27zm.92-.922c.19-.085.315-.168.432-.268.114-.094.297-.23.293 0-.004.233-.298.424-.595.455L18 14.4zM19 14c.307 0 .69.185.803.304.11.12.13.262-.178.24L19 14zm.096 1c.282.09.534.217.683.336.14.12.13.232-.16.167-.3-.065-.47-.148-.62-.24l.09-.263zM20 15c.403.276.58.505.644.666.062.16.022.39-.047.322-.058-.058-.175-.087-.29-.1L20 15zm-.68 0c.254.182.426.56.362.842-.06.28-.194.12-.31.034-.116-.084-.4-.334-.37-.682L19.32 15zm-1.32.046c.257-.086.666-.055.62.117-.046.17-.418-.03-.59 0l-.03-.117zM19.117 15c-.016.046-.032.115-.117.155l.117-.155zM19 15c.108.193.355.302.512 0H19zm.05 2.12c-.085.278-.085.568.193.736.28.17.35.18.434.08.086-.096.125-.26.062-.444-.07-.186-.1-.337-.02-.492l-.68.12zm.44.62c-.017.08-.04.183-.126.23-.084.05-.13.042-.154-.053-.023-.096-.38-.512-.11-.917l.39.74z" mask="url(#b)"/>
    <path stroke="#000" stroke-width=".125" d="M18.16 16c-.355.553-.006.686-.014.87-.008.186.11.133.148.08.038-.053.077-.138.073-.29m.988-1.66c-.308.35-.394.647-.34.82.054.17.23.234.363.13.132-.105.186-.187.24-.275m.445-.43c-.108.35-.08.56.1.707.14.112.24.005.296-.093.12-.22.17-.57.12-.86m-2.38 1c-.11.31-.18.62-.21.77-.02.15.01.27.18.2.16-.07.27-.18.32-.38m.49 1.48c.09.12.23.21.31.33.11.16.19-.09.19-.42M19 18c-.016.2.023.647.102.79.076.14.232.36.432.057m.78-2.848c-.01.28.317.45.21.82-.048.16-.14.27-.528.05m0-1.27c-.014.12.132.23.233.33.1.1.15.1.22-.16.07-.27.04-.61-.01-.78M20 16.64c.21.08.366.032.366-.154 0-.185-.08-.363-.178-.488M17 14.4c-.007.073.137.077.244.058.108-.02.245-.116.26-.232.015-.117-.025-.228-.117-.226m-.387.117c.02.06.223.16.312-.117m-.308.11c-.023.03.067.05.11.02.042-.034.078-.148.008-.128M22.342 13c.076.125.126.27.11.372-.015.102-.082.155-.18.038-.102-.114-.18-.155-.272-.184m.217-.226c.116.12.22.28.225.385.003.104-.06.265-.18.174-.118-.1-.177-.17-.262-.23M20.78 13c.108.118.176.227.203.356.025.127.047.258-.13.165-.184-.09-.585-.21-.853-.23m1-.29c.367.06.378.46.562.52m.438.52c.24.08.54.22.634.29.095.07.213.15.264.05.05-.1.128-.24.093-.37m.17 0c.07.2.03.47-.15.61M22 14c.293-.015.61.163.76.325.146.163.238.45-.07.674m.54-1c.667.48 1.53 1.34 1.7 1.67.165.33.038.47-.375.14-.412-.33-1.245-1.13-1.555-1.43m0 .62c.494.3 1.16.77 1.484.9.326.13.568.21.506-.32M22 16c.25.325.585.763.76.897.174.134.267.196.233-.19M21 16c.216.24.48.536.572.617.094.083.085.21.07.305-.016.095-.06.086-.194.062m-.37-.984c.154.21.154.38-.078.41m0-.016c.21-.007.372-.09.388-.394M21 15.418c.27.24.58-.193.394-.418m.606.54c.27.032.37-.216.178-.54M22 14.664c.334.047.426-.332.132-.664M21 14.575c.05-.045.08-.08.156-.07.078.006.162-.055.104-.197-.057-.145-.09-.244-.08-.308M19 13.095c.194-.054.457-.156.642-.047m.358.003c.14-.05.37-.08.542.01m-.542.97c.102-.06.496.01.565.27m.435-.28c.124-.07.442.05.473.24M21 15c.263-.01.502.2.472.41M18 18c.145.19.664.75.838.93.09.096.128.114.162-.086M19 18c.214.28.556.758.796.915.24.154.202-.023.202-.373m.002-1.31c.13.223.41.564.69.704.278.142.297.028.278-.15-.03-.27-.3-.603-.44-.786M19 19.107c.1.11.31.102.208-.107M20 19c.196.373.67.82.812.93.142.115.15.087.188-.078M20 19c.253.43.525.822.725.93.2.107.258.12.275-.16m0-.77c.17.367.388.74.572.91.187.17.273.095.273-.19M21.038 17c.233.563.403 1.18.426 1.632.024.453-.007.47-.464.15M21 17c.27.34.435.613.473.804.038.19.022.238-.28.16" mask="url(#b)"/>
    <path stroke="#000" stroke-width=".125" d="M21.294 18c.192.637.324 1.328.332 1.62.008.29-.027.653-.277.064-.07-.146-.26-.8-.35-1.2M22 18c.187.496.333.975.343 1.425.005.448 0 .78-.21.425m-.994-3.06c.34-.184.36-.518-.14-.79m1.07.802c.38-.152.63-.464-.07-.802m.28-.14c.25-.016.41-.195.41-.388-.01-.193-.17-.447-.69-.472m0 2.38c.32.103.58.18.52-.38M22 16c.268.32.39.54.698.613.365.084.35.04.21-.566M17.468 14c-.015.054-.043.095-.083.12-.114.077-.486.368-.36.514m-.025-.39c.107-.132.2-.195.288-.244m.712.418c.07-.108.137-.266.18-.418m-.16 0c0 .096-.006.19-.02.273m2.03.727c.155.256.274.524.46.627.264.142-.072.13-.11.123-.114-.015-.296-.104-.38-.282M19.297 14c-.092.047-.205.084-.297.072M18.127 14c-.012.098-.047.214-.127.34m5-.23c.29.255.655.14.862-.11m-.408 3.634c-.186-.186-.425-.426-.454-.634m1.284 1.388c-.08-.123-.178-.254-.284-.388m.396.617c-.12-.225-.28-.406-.396-.617m1.262-.562c-.118-.16-.242-.305-.262-.438m1-.35c-.273.05-.683-.123-1-.65m-4.982-3c-.016.05-.02.107-.016.17.017.286.144.323.36.488.465.345.507.253.61 1.142.076.652 0 .816-.298 1.188.068.502.12.633.18.756.055.123.06.264-.122.256m1.51.72c.12-.17.014-.487-.242-.72m0 1c.033.05.062.098.09.15M22 19.812c.064-.242.096-.52.078-.813m.884 1.87c-.265-.24-.527-.49-.962-.88m2 1c-.292-.13-1.507-.76-2-1m2 1c-.376-.32-1.45-1.36-2-2m0 1c.114.35.215.62.27.76m-.952-.24c-.083-.14-.188-.31-.318-.53m.412.65c-.085-.15-.25-.4-.412-.65m1.065.83c-.026-.41-.04-.65-.065-.83m-3 .42c.028-.04.063-.08.104-.12.134-.13.296-.25.58-.31m-.46-.01c-.03-.04-.06-.09-.088-.14-.14-.26-.146-.59-.13-.86M20 20.31c.033-.04.063-.142.094-.317M19 19c.078.064.17.126.276.178M18 18c.77.697 1.576 1.518 2 2m-2-1.67l.038-.028c.092-.077.147-.188.178-.302M18 16.186c.02.004.048.004.077 0 .133-.015.224-.07.326-.186m-.403.293h.04c.133-.005.326-.07.515-.293M18 15.384c.018-.012.04-.03.065-.055.06-.06.13-.15.107-.33" mask="url(#b)"/>
    <path fill="#F2AF7E" d="M17.495 15c-.11.007-.245.074-.176.16-.37.168-.39.495-.22.693.14.16.5.154.6.14-.19-.052-.28-.384-.19-.473.09-.09.28-.27.75.11.15-.11.3-.206.43-.213.18-.006.37-.134.25-.25-.12-.116-.75.064-.94-.045-.19-.11-.43-.006-.53-.122" mask="url(#b)"/>
    <path stroke="#000" stroke-width=".125" d="M17.495 15c-.11.007-.245.074-.176.16-.37.168-.39.495-.22.693.14.16.5.154.6.14-.19-.052-.28-.384-.19-.473.09-.09.28-.27.75.11.15-.11.3-.206.43-.213.18-.006.37-.134.25-.25-.12-.116-.75.064-.94-.045-.19-.11-.43-.006-.53-.122zm1.145.156c.02-.143-.094-.175-.257-.147-.164.02-.294.12-.383.19l.64-.05zM17 15.128c0 .06.244.097.248-.128l-.248.128z" mask="url(#b)"/>
    <path fill="#F5B827" d="M20.742 21.114c.046.152-.245.268-.4.213-.16-.054-.342.006-.342.194 0 .13.078.2.216.23-.025.09.085.25.235.26.16.01.28-.11.28-.25.2.04.5-.15.72-.03.06.16.24.19.44.08.21-.1.12-.34-.06-.34-.32.01-.56-.17-.76-.46-.05.25-.18.33-.31.12" mask="url(#b)"/>
    <path stroke="#000" stroke-width=".125" d="M20.742 21.114c.046.152-.245.268-.4.213-.16-.054-.342.006-.342.194 0 .13.078.2.216.23-.025.09.085.25.235.26.16.01.28-.11.28-.25.2.04.5-.15.72-.03.06.16.24.19.44.08.21-.1.12-.34-.06-.34-.32.01-.56-.17-.76-.46-.05.25-.18.33-.31.12zm-.742.38c.046-.154.386-.23.45-.31.06-.076.22-.178.29-.184l-.74.495zm1-.336c.006.062.018.185.01.232-.008.047.005.105.168.102.16-.004.218-.004.203-.106-.01-.1-.03-.256-.03-.386l-.34.158zm0 1.08c.14.005.29-.096.324-.238l-.324.238zm0-.03c.088-.023.193-.092.215-.208l-.215.208zm0-.048c.09-.013.16-.07.16-.16l-.16.16zm.026-1.16c-.057.042-.02.157.112.21l-.112-.21zm-.99 1c-.073.04-.033.245.105.263l-.1-.263zm1.28-.997c-.114-.005-.287-.01-.316.04l.317-.04z" mask="url(#b)"/>
    <path fill="#FFF" d="M20.21 22.52c-.304-.132-.247-.464-.02-.51.224-.048.23.095.23.19 0 .092-.313.132-.21.32" mask="url(#b)"/>
    <path stroke="#000" stroke-width=".125" d="M20.21 22.52c-.304-.132-.247-.464-.02-.51.224-.048.23.095.23.19 0 .092-.313.132-.21.32z" mask="url(#b)"/>
    <path fill="#FFF" d="M20.112 22.5c-.236-.175-.062-.493.17-.5.233-.01.214.24.13.297-.08.06-.358-.064-.3.202" mask="url(#b)"/>
    <path stroke="#000" stroke-width=".125" d="M20.112 22.5c-.236-.175-.062-.493.17-.5.233-.01.214.24.13.297-.08.06-.358-.064-.3.202z" mask="url(#b)"/>
    <path fill="#FFF" d="M22.08 22.555c.333-.04.357-.288.28-.435-.078-.147-.245-.136-.296-.086-.05.05-.11.187-.006.253.104.065.11.163.022.268" mask="url(#b)"/>
    <path stroke="#000" stroke-width=".125" d="M23.08 22.555c.333-.04.357-.288.28-.435-.078-.147-.245-.136-.296-.086-.05.05-.11.187-.006.253.104.065.11.163.022.268zM21 22c.09.023.143.067.147.112L21 22z" mask="url(#b)"/>
    <path fill="#F5B827" d="M18.91 19.554c.166.055.645.174 1.09.28-.116.023-.29.072-.42.166-.28-.056-.777-.13-1.052-.158-.17.137-.253.15-.31.088-.05-.056-.184-.106-.347-.187-.07.044-.13.06-.18.06-.08.07-.16.085-.22.065-.07.1-.14.144-.27.04-.13-.1-.19-.273-.19-.365 0-.09.08-.134.15-.143.05-.132.15-.19.27-.177.03-.13.19-.22.38-.2.25.028.83-.097.96.05.1.112.35.33.17.48" mask="url(#b)"/>
    <path stroke="#000" stroke-width=".125" d="M18.91 19.554c.166.055.645.174 1.09.28-.116.023-.29.072-.42.166-.28-.056-.777-.13-1.052-.158-.17.137-.253.15-.31.088-.05-.056-.184-.106-.347-.187-.07.044-.13.06-.18.06-.08.07-.16.085-.22.065-.07.1-.14.144-.27.04-.13-.1-.19-.273-.19-.365 0-.09.08-.134.15-.143.05-.132.15-.19.27-.177.03-.13.19-.22.38-.2.25.028.83-.097.96.05.1.112.35.33.17.48zM17.002 19c-.016.055.063.124.108.258.03.082.095.225.194.262l-.302-.52zm0 0c-.004.038-.003.08.01.12.032.1.086.215.102.348.01.088.055.173.146.176L17.003 19zm1.66.43c-.177-.07-.187-.184-.193-.293-.01-.108-.19-.188-.33-.098-.15.08-.21.28-.04.39l.06.03.49-.04zm.696.57c-.088.086-.148.134-.358.32l.358-.32z" mask="url(#b)"/>
    <path fill="#FFF" d="M17 20.066c.062.116.234.228.438.103-.086-.07-.233-.14-.284-.17-.043.03-.092.06-.154.06" mask="url(#b)"/>
    <path stroke="#000" stroke-width=".125" d="M17 20.066c.062.116.234.228.438.103-.086-.07-.233-.14-.284-.17-.043.03-.092.06-.154.06z" mask="url(#b)"/>
    <path fill="#FFF" d="M17 20.078c.035.096.242.18.43.08-.09-.014-.184-.067-.23-.158h-.012c-.028.04-.124.098-.188.078" mask="url(#b)"/>
    <path stroke="#000" stroke-width=".125" d="M17 20.078c.035.096.242.18.43.08-.09-.014-.184-.067-.23-.158h-.012c-.028.04-.124.098-.188.078z" mask="url(#b)"/>
    <path fill="#FFF" d="M17 20.112c.03.073.213.107.3.008-.042-.015-.134-.06-.15-.115-.007 0-.016 0-.023-.005-.024.04-.062.115-.127.112" mask="url(#b)"/>
    <path stroke="#000" stroke-width=".125" d="M17 20.112c.03.073.213.107.3.008-.042-.015-.134-.06-.15-.115-.007 0-.016 0-.023-.005-.024.04-.062.115-.127.112z" mask="url(#b)"/>
    <path fill="#FFF" d="M17.42 19c-.348-.023-.432.26-.42.493.01.115.113.133.222.105.07-.02.123-.08.083-.214-.036-.123-.026-.28.116-.383" mask="url(#b)"/>
    <path stroke="#000" stroke-width=".125" d="M17.42 19c-.348-.023-.432.26-.42.493.01.115.113.133.222.105.07-.02.123-.08.083-.214-.036-.123-.026-.28.116-.383z" mask="url(#b)"/>
    <path fill="#F5B827" d="M16.07 14c.118.11.11.433-.01.542.018-.11.03-.3-.06-.387l.07-.155" mask="url(#b)"/>
    <path stroke="#000" stroke-width=".125" d="M16.07 14c.118.11.11.433-.01.542.018-.11.03-.3-.06-.387l.07-.155z" mask="url(#b)"/>
    <path fill="#508A32" d="M16.844 15.9c-.58.296-.717-.14-.723-.302 0-.164-.02-.334-.08-.503-.07-.25-.05-.42.15-.565.19-.146.38-.316.48-.426.1-.11.2-.19.14.068-.02.11-.09.358-.2.496-.1.136-.18.28-.08.384.1.1.35-.076.48-.242.03.09-.08.25-.18.29-.1.044-.33.116-.32.232.03.172.3.026.52.053-.08.098-.17.25-.15.514" mask="url(#b)"/>
    <path stroke="#000" stroke-width=".125" d="M16.844 15.9c-.58.296-.717-.14-.723-.302 0-.164-.02-.334-.08-.503-.07-.25-.05-.42.15-.565.19-.146.38-.316.48-.426.1-.11.2-.19.14.068-.02.11-.09.358-.2.496-.1.136-.18.28-.08.384.1.1.35-.076.48-.242.03.09-.08.25-.18.29-.1.044-.33.116-.32.232.03.172.3.026.52.053-.08.098-.17.25-.15.514z" mask="url(#b)"/>
    <path fill="#508A32" d="M17.572 20c.213-.093.576-.316.363-.873-.268-.696-1.058-.19-1.256-.49-.28-.426-.23-.683.48-1.243.68-.542.61-.907.39-1.138-.06-.068-.25-.265-.4-.256-.15.006-.26.183-.23.312.18.14.25.408.06.562-.62.486-1.2.974-.93 1.843.2.662.73.54.91.547.31.014.58-.014.48.2-.02.034-.05.08-.1.127-.01.05 0 .12.02.17.05 0 .11.02.14.07.04.06.02.14.04.18" mask="url(#b)"/>
    <path stroke="#000" stroke-width=".125" d="M17.572 20c.213-.093.576-.316.363-.873-.268-.696-1.058-.19-1.256-.49-.28-.426-.23-.683.48-1.243.68-.542.61-.907.39-1.138-.06-.068-.25-.265-.4-.256-.15.006-.26.183-.23.312.18.14.25.408.06.562-.62.486-1.2.974-.93 1.843.2.662.73.54.91.547.31.014.58-.014.48.2-.02.034-.05.08-.1.127-.01.05 0 .12.02.17.05 0 .11.02.14.07.04.06.02.14.04.18z" mask="url(#b)"/>
    <path fill="#C06E26" d="M16.24 18c-.144.22-.08.404.117.644.246.3 1.23-.206 1.563.487.264.56-.188.78-.452.87-.024-.03 0-.12-.052-.17-.038-.04-.112-.06-.18-.06-.018-.05-.028-.12-.024-.16.058-.05.097-.09.12-.12.12-.21-.242-.18-.624-.2-.88-.03-.817-.89-.467-1.26" mask="url(#b)"/>
    <path stroke="#000" stroke-width=".125" d="M16.24 18c-.144.22-.08.404.117.644.246.3 1.23-.206 1.563.487.264.56-.188.78-.452.87-.024-.03 0-.12-.052-.17-.038-.04-.112-.06-.18-.06-.018-.05-.028-.12-.024-.16.058-.05.097-.09.12-.12.12-.21-.242-.18-.624-.2-.88-.03-.817-.89-.467-1.26z" mask="url(#b)"/>
    <path fill="#C06E26" d="M17 16.123c.04-.065.133-.12.247-.123.173-.007.4.14.464.193.25.167.33.428-.35.807.5-.262.18-.823-.35-.877" mask="url(#b)"/>
    <path stroke="#000" stroke-width=".125" d="M17 16.123c.04-.065.133-.12.247-.123.173-.007.4.14.464.193.25.167.33.428-.35.807.5-.262.18-.823-.35-.877z" mask="url(#b)"/>
    <path fill="#508A32" d="M17 19.828c-.428.36-.784.118-.876-.388-.06-.337-.142-.406-.41-.6-.408-.3-.245-.67-.14-.976.105-.303-.024-.424-.23-.527-.202-.1-.652-.35-.017-.336.634.02.674.74.554.99-.11.25-.16.44.22.58.37.15.26.7.51.85.04.03.09.04.14.04.03.18.13.36.26.38" mask="url(#b)"/>
    <path stroke="#000" stroke-width=".125" d="M17 19.828c-.428.36-.784.118-.876-.388-.06-.337-.142-.406-.41-.6-.408-.3-.245-.67-.14-.976.105-.303-.024-.424-.23-.527-.202-.1-.652-.35-.017-.336.634.02.674.74.554.99-.11.25-.16.44.22.58.37.15.26.7.51.85.04.03.09.04.14.04.03.18.13.36.26.38z" mask="url(#b)"/>
    <path fill="#C06E26" d="M14.433 17.23c.055-.04.098-.186-.044-.222-.17-.042-.18.1-.28.132-.13.036-.16.077-.05.172.07.064 0 .203.17.247.14.03.18-.12.14-.17-.03-.05 0-.13.04-.16" mask="url(#b)"/>
    <path stroke="#000" stroke-width=".125" d="M14.433 17.23c.055-.04.098-.186-.044-.222-.17-.042-.18.1-.28.132-.13.036-.16.077-.05.172.07.064 0 .203.17.247.14.03.18-.12.14-.17-.03-.05 0-.13.04-.16z" mask="url(#b)"/>
    <path fill="#C06E26" d="M14.435 17.227c.053-.04.097-.182-.046-.22-.17-.043-.18.102-.28.132-.13.03-.16.07-.05.17.07.06.01.2.18.24.14.04.18-.11.14-.17-.03-.04 0-.13.04-.16" mask="url(#b)"/>
    <path stroke="#000" stroke-width=".125" d="M14.435 17.227c.053-.04.097-.182-.046-.22-.17-.043-.18.102-.28.132-.13.03-.16.07-.05.17.07.06.01.2.18.24.14.04.18-.11.14-.17-.03-.04 0-.13.04-.16z" mask="url(#b)"/>
    <path fill="#C06E26" d="M15.436 17.227c.052-.04.096-.183-.047-.218-.17-.05-.18.1-.28.13-.13.03-.16.07-.05.17.07.06.01.2.17.24.14.04.18-.11.15-.17-.03-.05-.01-.13.04-.17" mask="url(#b)"/>
    <path stroke="#000" stroke-width=".125" d="M15.436 17.227c.052-.04.096-.183-.047-.218-.17-.05-.18.1-.28.13-.13.03-.16.07-.05.17.07.06.01.2.17.24.14.04.18-.11.15-.17-.03-.05-.01-.13.04-.17zM18 15c.535.06.852.7.358 1L18 15zm.033 1c-.076.093-.007.54.073.664L18.033 16zm-.353 1.163c-.166-.04-.556-.125-.68-.163l.68.163zM17.02 16c-.045.123-.008.58.03.718L17.02 16zM17 16c.12-.015.707.13.758.048L17 16zm1 0c.004.14.408.47.25.625L18 16zm0 .27c.088.033.508-.098.45-.27l-.45.27zM17 17c-.007.13.11.496.16.646L17 17zm0 .003c.137-.03.516.153.66.125l-.66-.125zm-1 .12c.037-.108.63-.03.707-.123l-.707.123zM17.01 17c-.063.09.2.414.296.584L17.01 17zM16 17c-.03.123.445.35.427.45L16 17zm0 .424c-.02-.142.492-.326.567-.424l-.566.424zm1.008 1.128c-.07-.17.31-.428.346-.552l-.346.552zM16 18.016c.06-.06.398.054.424.223L16 18.01zM17 18c.037.022.146-.01.177.046L17 18zm0 0c0 .05.29-.004.332.047L17 18zm.002.212c-.023-.087.194-.26.32-.2l-.32.2zm0 .166c-.026-.084.16-.403.277-.376l-.28.376zm.01.11c-.063-.038.124-.483.267-.488l-.27.488zm1.006.07c-.07-.01.076-.558.238-.558l-.238.558zm.016.018c-.1-.004.035-.563.22-.576l-.22.576zm.006.004c-.1-.004.003-.584.166-.58l-.166.58zm-.013-.005c-.093-.027.076-.604.205-.574l-.205.58zm-.012-.023c-.08-.08.175-.6.27-.55l-.27.55zm-.015-.1c-.016-.055.368-.528.425-.442l-.425.44zm0 .77c.024-.075.57-.288.59-.202l-.59.202zm0-.15c.048-.062.683-.124.657 0H18zm0-.057c.04-.047.7.026.637.124L18 19.01zM18 19c.135 0 .626.13.57.19L18 19zm0 0c.212.023.485.15.418.208L18 19zm-1-.96c.038.073.254-.022.333-.04l-.333.04zm0 0c.054.05.196.003.276-.04l-.276.04zm1-1.805c-.008-.092.132-.21.228-.235l-.228.235zm.43-.06c-.078-.023-.368-.096-.43-.175l.43.175zm-.43-.993c.055-.056.194-.208.256-.178l-.256.178zm0 .005c.067-.082.194-.238.26-.17l-.26.17zm0 .977c.08-.08.256-.21.306-.147l-.306.147zm0-.035c.11-.09.315-.19.338-.09l-.338.09zm0-.01c.138-.08.303-.17.292-.09l-.292.09zm0-.05c.114-.06.25-.11.22-.06l-.22.05zm0-.04c.047-.02.102-.04.14-.04l-.14.03zM17.5 15c-.126 0-.38.565-.5.555l.5-.555zm-1.486.487c-.08-.055.214-.467.388-.487l-.388.487zM16 15.232c0-.12.268-.247.428-.23l-.428.23zm.16-.232c-.13.025-.26.336-.05.62l.05-.62zm.852 0c-.074.127.206.406.326.464L17.012 15zM17 20.222c.07.092.487-.12.602-.222l-.602.222zM17.064 19c.078.048-.173.65-.005.654V19zm.21 0c.087.23-.32.49-.27.58l.27-.58zm-.975 0c.03.11-.35.46-.3.602l.3-.602zm-.12 0c.07.057-.25.448-.17.623l.17-.623zm-.19.06c.08.067.57-.177.64.016L16 19.06zm0-.05c.01.084.36.102.62-.01l-.62.01zm0-.01c.04.108.29.21.5.09L16 19zm.31-.998c-.07-.035-.38.337-.3.397l.3-.4zm-.3.338c-.08-.094.25-.397.33-.33l-.33.33zm0-.112c-.05-.148.36-.287.4-.202l-.4.202zm0-.105c.03-.14.42-.18.4-.02l-.4.02zm0-.034c.06-.17.44-.07.4.03l-.4-.04z" mask="url(#b)"/>
    <path stroke="#000" stroke-width=".125" d="M15 19.113c.02-.125.397-.17.39-.008m-.39.065c-.022-.127.318-.255.366-.095m-.35-.818c-.092-.116.268-.33.332-.232m-.32.356c-.107-.06.118-.44.21-.37m.8-2.27c-.044-.07-.062-.23.014-.3.066-.06.156-.16.188-.27.023-.08-.03-.05-.06-.02-.037.03-.087.02-.083-.02.003-.04.046-.1.105-.11.04 0 .04.05.03.07" mask="url(#b)"/>
  </g>
</svg>