<svg xmlns="http://www.w3.org/2000/svg" width="40" height="40" viewBox="0 0 40 40" xmlns:xlink="http://www.w3.org/1999/xlink">
  <defs>
    <path id="a" d="M0 21.542C.797 31.87 9.433 40 19.97 40 31.033 40 40 31.037 40 19.98 40 9.352 31.715.658 21.247 0h-2.554C8.743.626.765 8.51 0 18.418v3.124"/>
  </defs>
  <g fill="none" fill-rule="evenodd">
    <mask id="b" fill="#fff">
      <use xlink:href="#a"/>
    </mask>
    <path fill="#272A29" d="M-9 33V8l19 12.493L-9 33" mask="url(#b)"/>
    <path fill="#34628B" d="M4 41l21.063-14H55v14H4" mask="url(#b)"/>
    <path fill="#E05142" d="M4-1h51v14H25.063S4.28-1.137 4-1" mask="url(#b)"/>
    <path fill="#E8BF28" d="M-9 4v3.36l19.055 12.633L-9 32.64V36l24-16.007L-9 4" mask="url(#b)"/>
    <path fill="#2E9666" d="M-9 4.376V-1h7.908l25.11 17.122H55v8.758H24.02L-1.093 42H-9v-5.367l23.704-16.136L-9 4.377" mask="url(#b)"/>
    <path fill="#FFF" d="M-1-1h4.924l21.094 14.232H55V16H24.07L-1-1m0 42h4.924l21.094-14.23H55V24H24.07L-1 41" mask="url(#b)"/>
  </g>
</svg>
