<svg xmlns="http://www.w3.org/2000/svg" width="40" height="40" viewBox="0 0 40 40" xmlns:xlink="http://www.w3.org/1999/xlink">
  <defs>
    <path id="a" d="M.06 21.56C.856 31.878 9.48 40 20 40c11.046 0 20-8.954 20-20C40 9.382 31.727.698 21.275.04h-2.55C8.79.665.825 8.543.06 18.44v3.12z"/>
  </defs>
  <g fill="none" fill-rule="evenodd">
    <mask id="b" fill="#fff">
      <use xlink:href="#a"/>
    </mask>
    <path fill="#E94B37" d="M.06.04h39.96V40H.06V.04z" mask="url(#b)"/>
    <path fill="#FFF" d="M28.446 14.768l2.296 3.134 3.693-1.216-2.274 3.152 2.297 3.134-3.7-1.186-2.276 3.152-.012-3.885-3.7-1.186 3.693-1.215-.013-3.884" mask="url(#b)"/>
    <path fill="#FFF" d="M18.683 28.352c-4.6 0-8.328-3.815-8.328-8.52 0-4.707 3.73-8.522 8.328-8.522 2.85 0 5.362 1.464 6.863 3.696-1.753-3.427-5.286-5.77-9.362-5.77-5.82 0-10.54 4.776-10.54 10.667 0 5.892 4.72 10.67 10.54 10.67 4.304 0 8.003-2.614 9.64-6.357-1.457 2.477-4.11 4.136-7.14 4.136" mask="url(#b)"/>
  </g>
</svg>
